<svg xmlns="http://www.w3.org/2000/svg" width="6240" height="420" viewBox="0 0 6240 420">
<rect width="100%" height="100%" fill="white"/>
<text x="3120.0" y="30" text-anchor="middle" font-family="Arial" font-size="20" font-weight="700">1km Monthly Label Counts</text>
<line x1="90" y1="55" x2="90" y2="340" stroke="#222"/>
<line x1="90" y1="340" x2="6210" y2="340" stroke="#222"/>
<rect x="108" y="320.38" width="109" height="19.62" fill="#4C78A8"/>
<text x="162.5" y="362" text-anchor="middle" font-family="Arial" font-size="12">2020-02\n1</text>
<text x="162.5" y="312.38" text-anchor="middle" font-family="Arial" font-size="12">153.00</text>
<rect x="235" y="83.73" width="109" height="256.27" fill="#4C78A8"/>
<text x="289.5" y="362" text-anchor="middle" font-family="Arial" font-size="12">2020-02\n0</text>
<text x="289.5" y="75.73" text-anchor="middle" font-family="Arial" font-size="12">1,998.00</text>
<rect x="362" y="306.14" width="109" height="33.86" fill="#4C78A8"/>
<text x="416.5" y="362" text-anchor="middle" font-family="Arial" font-size="12">2020-03\n1</text>
<text x="416.5" y="298.14" text-anchor="middle" font-family="Arial" font-size="12">264.00</text>
<rect x="489" y="62.31" width="109" height="277.69" fill="#4C78A8"/>
<text x="543.5" y="362" text-anchor="middle" font-family="Arial" font-size="12">2020-03\n0</text>
<text x="543.5" y="54.31" text-anchor="middle" font-family="Arial" font-size="12">2,165.00</text>
<rect x="616" y="260.61" width="109" height="79.39" fill="#4C78A8"/>
<text x="670.5" y="362" text-anchor="middle" font-family="Arial" font-size="12">2020-04\n1</text>
<text x="670.5" y="252.61" text-anchor="middle" font-family="Arial" font-size="12">619.00</text>
<rect x="743" y="71.42" width="109" height="268.58" fill="#4C78A8"/>
<text x="797.5" y="362" text-anchor="middle" font-family="Arial" font-size="12">2020-04\n0</text>
<text x="797.5" y="63.42" text-anchor="middle" font-family="Arial" font-size="12">2,094.00</text>
<rect x="870" y="324.86" width="109" height="15.14" fill="#4C78A8"/>
<text x="924.5" y="362" text-anchor="middle" font-family="Arial" font-size="12">2020-05\n1</text>
<text x="924.5" y="316.86" text-anchor="middle" font-family="Arial" font-size="12">118.00</text>
<rect x="997" y="63.47" width="109" height="276.53" fill="#4C78A8"/>
<text x="1051.5" y="362" text-anchor="middle" font-family="Arial" font-size="12">2020-05\n0</text>
<text x="1051.5" y="55.47" text-anchor="middle" font-family="Arial" font-size="12">2,156.00</text>
<rect x="1124" y="306.01" width="109" height="33.99" fill="#4C78A8"/>
<text x="1178.5" y="362" text-anchor="middle" font-family="Arial" font-size="12">2021-02\n1</text>
<text x="1178.5" y="298.01" text-anchor="middle" font-family="Arial" font-size="12">265.00</text>
<rect x="1251" y="94.50" width="109" height="245.50" fill="#4C78A8"/>
<text x="1305.5" y="362" text-anchor="middle" font-family="Arial" font-size="12">2021-02\n0</text>
<text x="1305.5" y="86.50" text-anchor="middle" font-family="Arial" font-size="12">1,914.00</text>
<rect x="1378" y="323.33" width="109" height="16.67" fill="#4C78A8"/>
<text x="1432.5" y="362" text-anchor="middle" font-family="Arial" font-size="12">2021-03\n1</text>
<text x="1432.5" y="315.33" text-anchor="middle" font-family="Arial" font-size="12">130.00</text>
<rect x="1505" y="60.26" width="109" height="279.74" fill="#4C78A8"/>
<text x="1559.5" y="362" text-anchor="middle" font-family="Arial" font-size="12">2021-03\n0</text>
<text x="1559.5" y="52.26" text-anchor="middle" font-family="Arial" font-size="12">2,181.00</text>
<rect x="1632" y="313.83" width="109" height="26.17" fill="#4C78A8"/>
<text x="1686.5" y="362" text-anchor="middle" font-family="Arial" font-size="12">2021-04\n1</text>
<text x="1686.5" y="305.83" text-anchor="middle" font-family="Arial" font-size="12">204.00</text>
<rect x="1759" y="66.54" width="109" height="273.46" fill="#4C78A8"/>
<text x="1813.5" y="362" text-anchor="middle" font-family="Arial" font-size="12">2021-04\n0</text>
<text x="1813.5" y="58.54" text-anchor="middle" font-family="Arial" font-size="12">2,132.00</text>
<rect x="1886" y="324.48" width="109" height="15.52" fill="#4C78A8"/>
<text x="1940.5" y="362" text-anchor="middle" font-family="Arial" font-size="12">2021-05\n1</text>
<text x="1940.5" y="316.48" text-anchor="middle" font-family="Arial" font-size="12">121.00</text>
<rect x="2013" y="55.00" width="109" height="285.00" fill="#4C78A8"/>
<text x="2067.5" y="362" text-anchor="middle" font-family="Arial" font-size="12">2021-05\n0</text>
<text x="2067.5" y="48.00" text-anchor="middle" font-family="Arial" font-size="12">2,222.00</text>
<rect x="2140" y="261.89" width="109" height="78.11" fill="#4C78A8"/>
<text x="2194.5" y="362" text-anchor="middle" font-family="Arial" font-size="12">2022-02\n1</text>
<text x="2194.5" y="253.89" text-anchor="middle" font-family="Arial" font-size="12">609.00</text>
<rect x="2267" y="90.40" width="109" height="249.60" fill="#4C78A8"/>
<text x="2321.5" y="362" text-anchor="middle" font-family="Arial" font-size="12">2022-02\n0</text>
<text x="2321.5" y="82.40" text-anchor="middle" font-family="Arial" font-size="12">1,946.00</text>
<rect x="2394" y="320.12" width="109" height="19.88" fill="#4C78A8"/>
<text x="2448.5" y="362" text-anchor="middle" font-family="Arial" font-size="12">2022-03\n1</text>
<text x="2448.5" y="312.12" text-anchor="middle" font-family="Arial" font-size="12">155.00</text>
<rect x="2521" y="68.72" width="109" height="271.28" fill="#4C78A8"/>
<text x="2575.5" y="362" text-anchor="middle" font-family="Arial" font-size="12">2022-03\n0</text>
<text x="2575.5" y="60.72" text-anchor="middle" font-family="Arial" font-size="12">2,115.00</text>
<rect x="2648" y="292.29" width="109" height="47.71" fill="#4C78A8"/>
<text x="2702.5" y="362" text-anchor="middle" font-family="Arial" font-size="12">2022-04\n1</text>
<text x="2702.5" y="284.29" text-anchor="middle" font-family="Arial" font-size="12">372.00</text>
<rect x="2775" y="77.83" width="109" height="262.17" fill="#4C78A8"/>
<text x="2829.5" y="362" text-anchor="middle" font-family="Arial" font-size="12">2022-04\n0</text>
<text x="2829.5" y="69.83" text-anchor="middle" font-family="Arial" font-size="12">2,044.00</text>
<rect x="2902" y="301.01" width="109" height="38.99" fill="#4C78A8"/>
<text x="2956.5" y="362" text-anchor="middle" font-family="Arial" font-size="12">2022-05\n1</text>
<text x="2956.5" y="293.01" text-anchor="middle" font-family="Arial" font-size="12">304.00</text>
<rect x="3029" y="62.70" width="109" height="277.30" fill="#4C78A8"/>
<text x="3083.5" y="362" text-anchor="middle" font-family="Arial" font-size="12">2022-05\n0</text>
<text x="3083.5" y="54.70" text-anchor="middle" font-family="Arial" font-size="12">2,162.00</text>
<rect x="3156" y="324.10" width="109" height="15.90" fill="#4C78A8"/>
<text x="3210.5" y="362" text-anchor="middle" font-family="Arial" font-size="12">2023-02\n1</text>
<text x="3210.5" y="316.10" text-anchor="middle" font-family="Arial" font-size="12">124.00</text>
<rect x="3283" y="88.73" width="109" height="251.27" fill="#4C78A8"/>
<text x="3337.5" y="362" text-anchor="middle" font-family="Arial" font-size="12">2023-02\n0</text>
<text x="3337.5" y="80.73" text-anchor="middle" font-family="Arial" font-size="12">1,959.00</text>
<rect x="3410" y="256.12" width="109" height="83.88" fill="#4C78A8"/>
<text x="3464.5" y="362" text-anchor="middle" font-family="Arial" font-size="12">2023-03\n1</text>
<text x="3464.5" y="248.12" text-anchor="middle" font-family="Arial" font-size="12">654.00</text>
<rect x="3537" y="62.70" width="109" height="277.30" fill="#4C78A8"/>
<text x="3591.5" y="362" text-anchor="middle" font-family="Arial" font-size="12">2023-03\n0</text>
<text x="3591.5" y="54.70" text-anchor="middle" font-family="Arial" font-size="12">2,162.00</text>
<rect x="3664" y="315.50" width="109" height="24.50" fill="#4C78A8"/>
<text x="3718.5" y="362" text-anchor="middle" font-family="Arial" font-size="12">2023-04\n1</text>
<text x="3718.5" y="307.50" text-anchor="middle" font-family="Arial" font-size="12">191.00</text>
<rect x="3791" y="64.23" width="109" height="275.77" fill="#4C78A8"/>
<text x="3845.5" y="362" text-anchor="middle" font-family="Arial" font-size="12">2023-04\n0</text>
<text x="3845.5" y="56.23" text-anchor="middle" font-family="Arial" font-size="12">2,150.00</text>
<rect x="3918" y="302.55" width="109" height="37.45" fill="#4C78A8"/>
<text x="3972.5" y="362" text-anchor="middle" font-family="Arial" font-size="12">2023-05\n1</text>
<text x="3972.5" y="294.55" text-anchor="middle" font-family="Arial" font-size="12">292.00</text>
<rect x="4045" y="67.70" width="109" height="272.30" fill="#4C78A8"/>
<text x="4099.5" y="362" text-anchor="middle" font-family="Arial" font-size="12">2023-05\n0</text>
<text x="4099.5" y="59.70" text-anchor="middle" font-family="Arial" font-size="12">2,123.00</text>
<rect x="4172" y="340.00" width="109" height="0.00" fill="#4C78A8"/>
<text x="4226.5" y="362" text-anchor="middle" font-family="Arial" font-size="12">2024-02\n1</text>
<text x="4226.5" y="332.00" text-anchor="middle" font-family="Arial" font-size="12">0.00</text>
<rect x="4299" y="82.58" width="109" height="257.42" fill="#4C78A8"/>
<text x="4353.5" y="362" text-anchor="middle" font-family="Arial" font-size="12">2024-02\n0</text>
<text x="4353.5" y="74.58" text-anchor="middle" font-family="Arial" font-size="12">2,007.00</text>
<rect x="4426" y="335.77" width="109" height="4.23" fill="#4C78A8"/>
<text x="4480.5" y="362" text-anchor="middle" font-family="Arial" font-size="12">2024-03\n1</text>
<text x="4480.5" y="327.77" text-anchor="middle" font-family="Arial" font-size="12">33.00</text>
<rect x="4553" y="67.83" width="109" height="272.17" fill="#4C78A8"/>
<text x="4607.5" y="362" text-anchor="middle" font-family="Arial" font-size="12">2024-03\n0</text>
<text x="4607.5" y="59.83" text-anchor="middle" font-family="Arial" font-size="12">2,122.00</text>
<rect x="4680" y="292.16" width="109" height="47.84" fill="#4C78A8"/>
<text x="4734.5" y="362" text-anchor="middle" font-family="Arial" font-size="12">2024-04\n1</text>
<text x="4734.5" y="284.16" text-anchor="middle" font-family="Arial" font-size="12">373.00</text>
<rect x="4807" y="66.67" width="109" height="273.33" fill="#4C78A8"/>
<text x="4861.5" y="362" text-anchor="middle" font-family="Arial" font-size="12">2024-04\n0</text>
<text x="4861.5" y="58.67" text-anchor="middle" font-family="Arial" font-size="12">2,131.00</text>
<rect x="4934" y="329.23" width="109" height="10.77" fill="#4C78A8"/>
<text x="4988.5" y="362" text-anchor="middle" font-family="Arial" font-size="12">2024-05\n1</text>
<text x="4988.5" y="321.23" text-anchor="middle" font-family="Arial" font-size="12">84.00</text>
<rect x="5061" y="57.82" width="109" height="282.18" fill="#4C78A8"/>
<text x="5115.5" y="362" text-anchor="middle" font-family="Arial" font-size="12">2024-05\n0</text>
<text x="5115.5" y="49.82" text-anchor="middle" font-family="Arial" font-size="12">2,200.00</text>
<rect x="5188" y="340.00" width="109" height="0.00" fill="#4C78A8"/>
<text x="5242.5" y="362" text-anchor="middle" font-family="Arial" font-size="12">2025-02\n1</text>
<text x="5242.5" y="332.00" text-anchor="middle" font-family="Arial" font-size="12">0.00</text>
<rect x="5315" y="86.04" width="109" height="253.96" fill="#4C78A8"/>
<text x="5369.5" y="362" text-anchor="middle" font-family="Arial" font-size="12">2025-02\n0</text>
<text x="5369.5" y="78.04" text-anchor="middle" font-family="Arial" font-size="12">1,980.00</text>
<rect x="5442" y="340.00" width="109" height="0.00" fill="#4C78A8"/>
<text x="5496.5" y="362" text-anchor="middle" font-family="Arial" font-size="12">2025-03\n1</text>
<text x="5496.5" y="332.00" text-anchor="middle" font-family="Arial" font-size="12">0.00</text>
<rect x="5569" y="64.49" width="109" height="275.51" fill="#4C78A8"/>
<text x="5623.5" y="362" text-anchor="middle" font-family="Arial" font-size="12">2025-03\n0</text>
<text x="5623.5" y="56.49" text-anchor="middle" font-family="Arial" font-size="12">2,148.00</text>
<rect x="5696" y="340.00" width="109" height="0.00" fill="#4C78A8"/>
<text x="5750.5" y="362" text-anchor="middle" font-family="Arial" font-size="12">2025-04\n1</text>
<text x="5750.5" y="332.00" text-anchor="middle" font-family="Arial" font-size="12">0.00</text>
<rect x="5823" y="72.06" width="109" height="267.94" fill="#4C78A8"/>
<text x="5877.5" y="362" text-anchor="middle" font-family="Arial" font-size="12">2025-04\n0</text>
<text x="5877.5" y="64.06" text-anchor="middle" font-family="Arial" font-size="12">2,089.00</text>
<rect x="5950" y="340.00" width="109" height="0.00" fill="#4C78A8"/>
<text x="6004.5" y="362" text-anchor="middle" font-family="Arial" font-size="12">2025-05\n1</text>
<text x="6004.5" y="332.00" text-anchor="middle" font-family="Arial" font-size="12">0.00</text>
<rect x="6077" y="68.72" width="109" height="271.28" fill="#4C78A8"/>
<text x="6131.5" y="362" text-anchor="middle" font-family="Arial" font-size="12">2025-05\n0</text>
<text x="6131.5" y="60.72" text-anchor="middle" font-family="Arial" font-size="12">2,115.00</text>
</svg>