<svg xmlns="http://www.w3.org/2000/svg" width="6240" height="420" viewBox="0 0 6240 420">
<rect width="100%" height="100%" fill="white"/>
<text x="3120.0" y="30" text-anchor="middle" font-family="Arial" font-size="20" font-weight="700">2km Monthly Label Counts</text>
<line x1="90" y1="55" x2="90" y2="340" stroke="#222"/>
<line x1="90" y1="340" x2="6210" y2="340" stroke="#222"/>
<rect x="108" y="320.29" width="109" height="19.71" fill="#4C78A8"/>
<text x="162.5" y="362" text-anchor="middle" font-family="Arial" font-size="12">2020-02\n1</text>
<text x="162.5" y="312.29" text-anchor="middle" font-family="Arial" font-size="12">533.00</text>
<rect x="235" y="75.01" width="109" height="264.99" fill="#4C78A8"/>
<text x="289.5" y="362" text-anchor="middle" font-family="Arial" font-size="12">2020-02\n0</text>
<text x="289.5" y="67.01" text-anchor="middle" font-family="Arial" font-size="12">7,165.00</text>
<rect x="362" y="300.02" width="109" height="39.98" fill="#4C78A8"/>
<text x="416.5" y="362" text-anchor="middle" font-family="Arial" font-size="12">2020-03\n1</text>
<text x="416.5" y="292.02" text-anchor="middle" font-family="Arial" font-size="12">1,081.00</text>
<rect x="489" y="59.99" width="109" height="280.01" fill="#4C78A8"/>
<text x="543.5" y="362" text-anchor="middle" font-family="Arial" font-size="12">2020-03\n0</text>
<text x="543.5" y="51.99" text-anchor="middle" font-family="Arial" font-size="12">7,571.00</text>
<rect x="616" y="264.18" width="109" height="75.82" fill="#4C78A8"/>
<text x="670.5" y="362" text-anchor="middle" font-family="Arial" font-size="12">2020-04\n1</text>
<text x="670.5" y="256.18" text-anchor="middle" font-family="Arial" font-size="12">2,050.00</text>
<rect x="743" y="75.38" width="109" height="264.62" fill="#4C78A8"/>
<text x="797.5" y="362" text-anchor="middle" font-family="Arial" font-size="12">2020-04\n0</text>
<text x="797.5" y="67.38" text-anchor="middle" font-family="Arial" font-size="12">7,155.00</text>
<rect x="870" y="317.33" width="109" height="22.67" fill="#4C78A8"/>
<text x="924.5" y="362" text-anchor="middle" font-family="Arial" font-size="12">2020-05\n1</text>
<text x="924.5" y="309.33" text-anchor="middle" font-family="Arial" font-size="12">613.00</text>
<rect x="997" y="61.21" width="109" height="278.79" fill="#4C78A8"/>
<text x="1051.5" y="362" text-anchor="middle" font-family="Arial" font-size="12">2020-05\n0</text>
<text x="1051.5" y="53.21" text-anchor="middle" font-family="Arial" font-size="12">7,538.00</text>
<rect x="1124" y="301.54" width="109" height="38.46" fill="#4C78A8"/>
<text x="1178.5" y="362" text-anchor="middle" font-family="Arial" font-size="12">2021-02\n1</text>
<text x="1178.5" y="293.54" text-anchor="middle" font-family="Arial" font-size="12">1,040.00</text>
<rect x="1251" y="92.02" width="109" height="247.98" fill="#4C78A8"/>
<text x="1305.5" y="362" text-anchor="middle" font-family="Arial" font-size="12">2021-02\n0</text>
<text x="1305.5" y="84.02" text-anchor="middle" font-family="Arial" font-size="12">6,705.00</text>
<rect x="1378" y="326.20" width="109" height="13.80" fill="#4C78A8"/>
<text x="1432.5" y="362" text-anchor="middle" font-family="Arial" font-size="12">2021-03\n1</text>
<text x="1432.5" y="318.20" text-anchor="middle" font-family="Arial" font-size="12">373.00</text>
<rect x="1505" y="55.67" width="109" height="284.33" fill="#4C78A8"/>
<text x="1559.5" y="362" text-anchor="middle" font-family="Arial" font-size="12">2021-03\n0</text>
<text x="1559.5" y="48.00" text-anchor="middle" font-family="Arial" font-size="12">7,688.00</text>
<rect x="1632" y="312.78" width="109" height="27.22" fill="#4C78A8"/>
<text x="1686.5" y="362" text-anchor="middle" font-family="Arial" font-size="12">2021-04\n1</text>
<text x="1686.5" y="304.78" text-anchor="middle" font-family="Arial" font-size="12">736.00</text>
<rect x="1759" y="62.62" width="109" height="277.38" fill="#4C78A8"/>
<text x="1813.5" y="362" text-anchor="middle" font-family="Arial" font-size="12">2021-04\n0</text>
<text x="1813.5" y="54.62" text-anchor="middle" font-family="Arial" font-size="12">7,500.00</text>
<rect x="1886" y="321.29" width="109" height="18.71" fill="#4C78A8"/>
<text x="1940.5" y="362" text-anchor="middle" font-family="Arial" font-size="12">2021-05\n1</text>
<text x="1940.5" y="313.29" text-anchor="middle" font-family="Arial" font-size="12">506.00</text>
<rect x="2013" y="55.04" width="109" height="284.96" fill="#4C78A8"/>
<text x="2067.5" y="362" text-anchor="middle" font-family="Arial" font-size="12">2021-05\n0</text>
<text x="2067.5" y="48.00" text-anchor="middle" font-family="Arial" font-size="12">7,705.00</text>
<rect x="2140" y="272.21" width="109" height="67.79" fill="#4C78A8"/>
<text x="2194.5" y="362" text-anchor="middle" font-family="Arial" font-size="12">2022-02\n1</text>
<text x="2194.5" y="264.21" text-anchor="middle" font-family="Arial" font-size="12">1,833.00</text>
<rect x="2267" y="88.17" width="109" height="251.83" fill="#4C78A8"/>
<text x="2321.5" y="362" text-anchor="middle" font-family="Arial" font-size="12">2022-02\n0</text>
<text x="2321.5" y="80.17" text-anchor="middle" font-family="Arial" font-size="12">6,809.00</text>
<rect x="2394" y="320.51" width="109" height="19.49" fill="#4C78A8"/>
<text x="2448.5" y="362" text-anchor="middle" font-family="Arial" font-size="12">2022-03\n1</text>
<text x="2448.5" y="312.51" text-anchor="middle" font-family="Arial" font-size="12">527.00</text>
<rect x="2521" y="59.59" width="109" height="280.41" fill="#4C78A8"/>
<text x="2575.5" y="362" text-anchor="middle" font-family="Arial" font-size="12">2022-03\n0</text>
<text x="2575.5" y="51.59" text-anchor="middle" font-family="Arial" font-size="12">7,582.00</text>
<rect x="2648" y="290.85" width="109" height="49.15" fill="#4C78A8"/>
<text x="2702.5" y="362" text-anchor="middle" font-family="Arial" font-size="12">2022-04\n1</text>
<text x="2702.5" y="282.85" text-anchor="middle" font-family="Arial" font-size="12">1,329.00</text>
<rect x="2775" y="73.27" width="109" height="266.73" fill="#4C78A8"/>
<text x="2829.5" y="362" text-anchor="middle" font-family="Arial" font-size="12">2022-04\n0</text>
<text x="2829.5" y="65.27" text-anchor="middle" font-family="Arial" font-size="12">7,212.00</text>
<rect x="2902" y="296.17" width="109" height="43.83" fill="#4C78A8"/>
<text x="2956.5" y="362" text-anchor="middle" font-family="Arial" font-size="12">2022-05\n1</text>
<text x="2956.5" y="288.17" text-anchor="middle" font-family="Arial" font-size="12">1,185.00</text>
<rect x="3029" y="55.00" width="109" height="285.00" fill="#4C78A8"/>
<text x="3083.5" y="362" text-anchor="middle" font-family="Arial" font-size="12">2022-05\n0</text>
<text x="3083.5" y="48.00" text-anchor="middle" font-family="Arial" font-size="12">7,706.00</text>
<rect x="3156" y="322.10" width="109" height="17.90" fill="#4C78A8"/>
<text x="3210.5" y="362" text-anchor="middle" font-family="Arial" font-size="12">2023-02\n1</text>
<text x="3210.5" y="314.10" text-anchor="middle" font-family="Arial" font-size="12">484.00</text>
<rect x="3283" y="84.59" width="109" height="255.41" fill="#4C78A8"/>
<text x="3337.5" y="362" text-anchor="middle" font-family="Arial" font-size="12">2023-02\n0</text>
<text x="3337.5" y="76.59" text-anchor="middle" font-family="Arial" font-size="12">6,906.00</text>
<rect x="3410" y="260.82" width="109" height="79.18" fill="#4C78A8"/>
<text x="3464.5" y="362" text-anchor="middle" font-family="Arial" font-size="12">2023-03\n1</text>
<text x="3464.5" y="252.82" text-anchor="middle" font-family="Arial" font-size="12">2,141.00</text>
<rect x="3537" y="65.65" width="109" height="274.35" fill="#4C78A8"/>
<text x="3591.5" y="362" text-anchor="middle" font-family="Arial" font-size="12">2023-03\n0</text>
<text x="3591.5" y="57.65" text-anchor="middle" font-family="Arial" font-size="12">7,418.00</text>
<rect x="3664" y="310.12" width="109" height="29.88" fill="#4C78A8"/>
<text x="3718.5" y="362" text-anchor="middle" font-family="Arial" font-size="12">2023-04\n1</text>
<text x="3718.5" y="302.12" text-anchor="middle" font-family="Arial" font-size="12">808.00</text>
<rect x="3791" y="65.10" width="109" height="274.90" fill="#4C78A8"/>
<text x="3845.5" y="362" text-anchor="middle" font-family="Arial" font-size="12">2023-04\n0</text>
<text x="3845.5" y="57.10" text-anchor="middle" font-family="Arial" font-size="12">7,433.00</text>
<rect x="3918" y="306.71" width="109" height="33.29" fill="#4C78A8"/>
<text x="3972.5" y="362" text-anchor="middle" font-family="Arial" font-size="12">2023-05\n1</text>
<text x="3972.5" y="298.71" text-anchor="middle" font-family="Arial" font-size="12">900.00</text>
<rect x="4045" y="61.99" width="109" height="278.01" fill="#4C78A8"/>
<text x="4099.5" y="362" text-anchor="middle" font-family="Arial" font-size="12">2023-05\n0</text>
<text x="4099.5" y="53.99" text-anchor="middle" font-family="Arial" font-size="12">7,517.00</text>
<rect x="4172" y="340.00" width="109" height="0.00" fill="#4C78A8"/>
<text x="4226.5" y="362" text-anchor="middle" font-family="Arial" font-size="12">2024-02\n1</text>
<text x="4226.5" y="332.00" text-anchor="middle" font-family="Arial" font-size="12">0.00</text>
<rect x="4299" y="74.12" width="109" height="265.88" fill="#4C78A8"/>
<text x="4353.5" y="362" text-anchor="middle" font-family="Arial" font-size="12">2024-02\n0</text>
<text x="4353.5" y="66.12" text-anchor="middle" font-family="Arial" font-size="12">7,189.00</text>
<rect x="4426" y="336.45" width="109" height="3.55" fill="#4C78A8"/>
<text x="4480.5" y="362" text-anchor="middle" font-family="Arial" font-size="12">2024-03\n1</text>
<text x="4480.5" y="328.45" text-anchor="middle" font-family="Arial" font-size="12">96.00</text>
<rect x="4553" y="57.48" width="109" height="282.52" fill="#4C78A8"/>
<text x="4607.5" y="362" text-anchor="middle" font-family="Arial" font-size="12">2024-03\n0</text>
<text x="4607.5" y="49.48" text-anchor="middle" font-family="Arial" font-size="12">7,639.00</text>
<rect x="4680" y="294.62" width="109" height="45.38" fill="#4C78A8"/>
<text x="4734.5" y="362" text-anchor="middle" font-family="Arial" font-size="12">2024-04\n1</text>
<text x="4734.5" y="286.62" text-anchor="middle" font-family="Arial" font-size="12">1,227.00</text>
<rect x="4807" y="69.53" width="109" height="270.47" fill="#4C78A8"/>
<text x="4861.5" y="362" text-anchor="middle" font-family="Arial" font-size="12">2024-04\n0</text>
<text x="4861.5" y="61.53" text-anchor="middle" font-family="Arial" font-size="12">7,313.00</text>
<rect x="4934" y="332.46" width="109" height="7.54" fill="#4C78A8"/>
<text x="4988.5" y="362" text-anchor="middle" font-family="Arial" font-size="12">2024-05\n1</text>
<text x="4988.5" y="324.46" text-anchor="middle" font-family="Arial" font-size="12">204.00</text>
<rect x="5061" y="59.44" width="109" height="280.56" fill="#4C78A8"/>
<text x="5115.5" y="362" text-anchor="middle" font-family="Arial" font-size="12">2024-05\n0</text>
<text x="5115.5" y="51.44" text-anchor="middle" font-family="Arial" font-size="12">7,586.00</text>
<rect x="5188" y="340.00" width="109" height="0.00" fill="#4C78A8"/>
<text x="5242.5" y="362" text-anchor="middle" font-family="Arial" font-size="12">2025-02\n1</text>
<text x="5242.5" y="332.00" text-anchor="middle" font-family="Arial" font-size="12">0.00</text>
<rect x="5315" y="84.74" width="109" height="255.26" fill="#4C78A8"/>
<text x="5369.5" y="362" text-anchor="middle" font-family="Arial" font-size="12">2025-02\n0</text>
<text x="5369.5" y="76.74" text-anchor="middle" font-family="Arial" font-size="12">6,902.00</text>
<rect x="5442" y="340.00" width="109" height="0.00" fill="#4C78A8"/>
<text x="5496.5" y="362" text-anchor="middle" font-family="Arial" font-size="12">2025-03\n1</text>
<text x="5496.5" y="332.00" text-anchor="middle" font-family="Arial" font-size="12">0.00</text>
<rect x="5569" y="61.81" width="109" height="278.19" fill="#4C78A8"/>
<text x="5623.5" y="362" text-anchor="middle" font-family="Arial" font-size="12">2025-03\n0</text>
<text x="5623.5" y="53.81" text-anchor="middle" font-family="Arial" font-size="12">7,522.00</text>
<rect x="5696" y="340.00" width="109" height="0.00" fill="#4C78A8"/>
<text x="5750.5" y="362" text-anchor="middle" font-family="Arial" font-size="12">2025-04\n1</text>
<text x="5750.5" y="332.00" text-anchor="middle" font-family="Arial" font-size="12">0.00</text>
<rect x="5823" y="68.02" width="109" height="271.98" fill="#4C78A8"/>
<text x="5877.5" y="362" text-anchor="middle" font-family="Arial" font-size="12">2025-04\n0</text>
<text x="5877.5" y="60.02" text-anchor="middle" font-family="Arial" font-size="12">7,354.00</text>
<rect x="5950" y="340.00" width="109" height="0.00" fill="#4C78A8"/>
<text x="6004.5" y="362" text-anchor="middle" font-family="Arial" font-size="12">2025-05\n1</text>
<text x="6004.5" y="332.00" text-anchor="middle" font-family="Arial" font-size="12">0.00</text>
<rect x="6077" y="58.99" width="109" height="281.01" fill="#4C78A8"/>
<text x="6131.5" y="362" text-anchor="middle" font-family="Arial" font-size="12">2025-05\n0</text>
<text x="6131.5" y="50.99" text-anchor="middle" font-family="Arial" font-size="12">7,598.00</text>
</svg>