<svg xmlns="http://www.w3.org/2000/svg" width="6240" height="420" viewBox="0 0 6240 420">
<rect width="100%" height="100%" fill="white"/>
<text x="3120.0" y="30" text-anchor="middle" font-family="Arial" font-size="20" font-weight="700">500m Monthly Label Counts</text>
<line x1="90" y1="55" x2="90" y2="340" stroke="#222"/>
<line x1="90" y1="340" x2="6210" y2="340" stroke="#222"/>
<rect x="108" y="320.62" width="109" height="19.38" fill="#4C78A8"/>
<text x="162.5" y="362" text-anchor="middle" font-family="Arial" font-size="12">2020-02\n1</text>
<text x="162.5" y="312.62" text-anchor="middle" font-family="Arial" font-size="12">41.00</text>
<rect x="235" y="81.00" width="109" height="259.00" fill="#4C78A8"/>
<text x="289.5" y="362" text-anchor="middle" font-family="Arial" font-size="12">2020-02\n0</text>
<text x="289.5" y="73.00" text-anchor="middle" font-family="Arial" font-size="12">548.00</text>
<rect x="362" y="297.94" width="109" height="42.06" fill="#4C78A8"/>
<text x="416.5" y="362" text-anchor="middle" font-family="Arial" font-size="12">2020-03\n1</text>
<text x="416.5" y="289.94" text-anchor="middle" font-family="Arial" font-size="12">89.00</text>
<rect x="489" y="74.85" width="109" height="265.15" fill="#4C78A8"/>
<text x="543.5" y="362" text-anchor="middle" font-family="Arial" font-size="12">2020-03\n0</text>
<text x="543.5" y="66.85" text-anchor="middle" font-family="Arial" font-size="12">561.00</text>
<rect x="616" y="244.53" width="109" height="95.47" fill="#4C78A8"/>
<text x="670.5" y="362" text-anchor="middle" font-family="Arial" font-size="12">2020-04\n1</text>
<text x="670.5" y="236.53" text-anchor="middle" font-family="Arial" font-size="12">202.00</text>
<rect x="743" y="80.05" width="109" height="259.95" fill="#4C78A8"/>
<text x="797.5" y="362" text-anchor="middle" font-family="Arial" font-size="12">2020-04\n0</text>
<text x="797.5" y="72.05" text-anchor="middle" font-family="Arial" font-size="12">550.00</text>
<rect x="870" y="331.97" width="109" height="8.03" fill="#4C78A8"/>
<text x="924.5" y="362" text-anchor="middle" font-family="Arial" font-size="12">2020-05\n1</text>
<text x="924.5" y="323.97" text-anchor="middle" font-family="Arial" font-size="12">17.00</text>
<rect x="997" y="59.73" width="109" height="280.27" fill="#4C78A8"/>
<text x="1051.5" y="362" text-anchor="middle" font-family="Arial" font-size="12">2020-05\n0</text>
<text x="1051.5" y="51.73" text-anchor="middle" font-family="Arial" font-size="12">593.00</text>
<rect x="1124" y="299.35" width="109" height="40.65" fill="#4C78A8"/>
<text x="1178.5" y="362" text-anchor="middle" font-family="Arial" font-size="12">2021-02\n1</text>
<text x="1178.5" y="291.35" text-anchor="middle" font-family="Arial" font-size="12">86.00</text>
<rect x="1251" y="111.72" width="109" height="228.28" fill="#4C78A8"/>
<text x="1305.5" y="362" text-anchor="middle" font-family="Arial" font-size="12">2021-02\n0</text>
<text x="1305.5" y="103.72" text-anchor="middle" font-family="Arial" font-size="12">483.00</text>
<rect x="1378" y="327.24" width="109" height="12.76" fill="#4C78A8"/>
<text x="1432.5" y="362" text-anchor="middle" font-family="Arial" font-size="12">2021-03\n1</text>
<text x="1432.5" y="319.24" text-anchor="middle" font-family="Arial" font-size="12">27.00</text>
<rect x="1505" y="63.98" width="109" height="276.02" fill="#4C78A8"/>
<text x="1559.5" y="362" text-anchor="middle" font-family="Arial" font-size="12">2021-03\n0</text>
<text x="1559.5" y="55.98" text-anchor="middle" font-family="Arial" font-size="12">584.00</text>
<rect x="1632" y="310.70" width="109" height="29.30" fill="#4C78A8"/>
<text x="1686.5" y="362" text-anchor="middle" font-family="Arial" font-size="12">2021-04\n1</text>
<text x="1686.5" y="302.70" text-anchor="middle" font-family="Arial" font-size="12">62.00</text>
<rect x="1759" y="85.72" width="109" height="254.28" fill="#4C78A8"/>
<text x="1813.5" y="362" text-anchor="middle" font-family="Arial" font-size="12">2021-04\n0</text>
<text x="1813.5" y="77.72" text-anchor="middle" font-family="Arial" font-size="12">538.00</text>
<rect x="1886" y="327.24" width="109" height="12.76" fill="#4C78A8"/>
<text x="1940.5" y="362" text-anchor="middle" font-family="Arial" font-size="12">2021-05\n1</text>
<text x="1940.5" y="319.24" text-anchor="middle" font-family="Arial" font-size="12">27.00</text>
<rect x="2013" y="55.00" width="109" height="285.00" fill="#4C78A8"/>
<text x="2067.5" y="362" text-anchor="middle" font-family="Arial" font-size="12">2021-05\n0</text>
<text x="2067.5" y="48.00" text-anchor="middle" font-family="Arial" font-size="12">603.00</text>
<rect x="2140" y="262.96" width="109" height="77.04" fill="#4C78A8"/>
<text x="2194.5" y="362" text-anchor="middle" font-family="Arial" font-size="12">2022-02\n1</text>
<text x="2194.5" y="254.96" text-anchor="middle" font-family="Arial" font-size="12">163.00</text>
<rect x="2267" y="76.27" width="109" height="263.73" fill="#4C78A8"/>
<text x="2321.5" y="362" text-anchor="middle" font-family="Arial" font-size="12">2022-02\n0</text>
<text x="2321.5" y="68.27" text-anchor="middle" font-family="Arial" font-size="12">558.00</text>
<rect x="2394" y="325.35" width="109" height="14.65" fill="#4C78A8"/>
<text x="2448.5" y="362" text-anchor="middle" font-family="Arial" font-size="12">2022-03\n1</text>
<text x="2448.5" y="317.35" text-anchor="middle" font-family="Arial" font-size="12">31.00</text>
<rect x="2521" y="64.45" width="109" height="275.55" fill="#4C78A8"/>
<text x="2575.5" y="362" text-anchor="middle" font-family="Arial" font-size="12">2022-03\n0</text>
<text x="2575.5" y="56.45" text-anchor="middle" font-family="Arial" font-size="12">583.00</text>
<rect x="2648" y="296.99" width="109" height="43.01" fill="#4C78A8"/>
<text x="2702.5" y="362" text-anchor="middle" font-family="Arial" font-size="12">2022-04\n1</text>
<text x="2702.5" y="288.99" text-anchor="middle" font-family="Arial" font-size="12">91.00</text>
<rect x="2775" y="82.89" width="109" height="257.11" fill="#4C78A8"/>
<text x="2829.5" y="362" text-anchor="middle" font-family="Arial" font-size="12">2022-04\n0</text>
<text x="2829.5" y="74.89" text-anchor="middle" font-family="Arial" font-size="12">544.00</text>
<rect x="2902" y="301.72" width="109" height="38.28" fill="#4C78A8"/>
<text x="2956.5" y="362" text-anchor="middle" font-family="Arial" font-size="12">2022-05\n1</text>
<text x="2956.5" y="293.72" text-anchor="middle" font-family="Arial" font-size="12">81.00</text>
<rect x="3029" y="67.76" width="109" height="272.24" fill="#4C78A8"/>
<text x="3083.5" y="362" text-anchor="middle" font-family="Arial" font-size="12">2022-05\n0</text>
<text x="3083.5" y="59.76" text-anchor="middle" font-family="Arial" font-size="12">576.00</text>
<rect x="3156" y="324.40" width="109" height="15.60" fill="#4C78A8"/>
<text x="3210.5" y="362" text-anchor="middle" font-family="Arial" font-size="12">2023-02\n1</text>
<text x="3210.5" y="316.40" text-anchor="middle" font-family="Arial" font-size="12">33.00</text>
<rect x="3283" y="98.96" width="109" height="241.04" fill="#4C78A8"/>
<text x="3337.5" y="362" text-anchor="middle" font-family="Arial" font-size="12">2023-02\n0</text>
<text x="3337.5" y="90.96" text-anchor="middle" font-family="Arial" font-size="12">510.00</text>
<rect x="3410" y="261.54" width="109" height="78.46" fill="#4C78A8"/>
<text x="3464.5" y="362" text-anchor="middle" font-family="Arial" font-size="12">2023-03\n1</text>
<text x="3464.5" y="253.54" text-anchor="middle" font-family="Arial" font-size="12">166.00</text>
<rect x="3537" y="70.12" width="109" height="269.88" fill="#4C78A8"/>
<text x="3591.5" y="362" text-anchor="middle" font-family="Arial" font-size="12">2023-03\n0</text>
<text x="3591.5" y="62.12" text-anchor="middle" font-family="Arial" font-size="12">571.00</text>
<rect x="3664" y="314.48" width="109" height="25.52" fill="#4C78A8"/>
<text x="3718.5" y="362" text-anchor="middle" font-family="Arial" font-size="12">2023-04\n1</text>
<text x="3718.5" y="306.48" text-anchor="middle" font-family="Arial" font-size="12">54.00</text>
<rect x="3791" y="70.60" width="109" height="269.40" fill="#4C78A8"/>
<text x="3845.5" y="362" text-anchor="middle" font-family="Arial" font-size="12">2023-04\n0</text>
<text x="3845.5" y="62.60" text-anchor="middle" font-family="Arial" font-size="12">570.00</text>
<rect x="3918" y="311.64" width="109" height="28.36" fill="#4C78A8"/>
<text x="3972.5" y="362" text-anchor="middle" font-family="Arial" font-size="12">2023-05\n1</text>
<text x="3972.5" y="303.64" text-anchor="middle" font-family="Arial" font-size="12">60.00</text>
<rect x="4045" y="72.01" width="109" height="267.99" fill="#4C78A8"/>
<text x="4099.5" y="362" text-anchor="middle" font-family="Arial" font-size="12">2023-05\n0</text>
<text x="4099.5" y="64.01" text-anchor="middle" font-family="Arial" font-size="12">567.00</text>
<rect x="4172" y="340.00" width="109" height="0.00" fill="#4C78A8"/>
<text x="4226.5" y="362" text-anchor="middle" font-family="Arial" font-size="12">2024-02\n1</text>
<text x="4226.5" y="332.00" text-anchor="middle" font-family="Arial" font-size="12">0.00</text>
<rect x="4299" y="103.68" width="109" height="236.32" fill="#4C78A8"/>
<text x="4353.5" y="362" text-anchor="middle" font-family="Arial" font-size="12">2024-02\n0</text>
<text x="4353.5" y="95.68" text-anchor="middle" font-family="Arial" font-size="12">500.00</text>
<rect x="4426" y="335.27" width="109" height="4.73" fill="#4C78A8"/>
<text x="4480.5" y="362" text-anchor="middle" font-family="Arial" font-size="12">2024-03\n1</text>
<text x="4480.5" y="327.27" text-anchor="middle" font-family="Arial" font-size="12">10.00</text>
<rect x="4553" y="59.73" width="109" height="280.27" fill="#4C78A8"/>
<text x="4607.5" y="362" text-anchor="middle" font-family="Arial" font-size="12">2024-03\n0</text>
<text x="4607.5" y="51.73" text-anchor="middle" font-family="Arial" font-size="12">593.00</text>
<rect x="4680" y="294.63" width="109" height="45.37" fill="#4C78A8"/>
<text x="4734.5" y="362" text-anchor="middle" font-family="Arial" font-size="12">2024-04\n1</text>
<text x="4734.5" y="286.63" text-anchor="middle" font-family="Arial" font-size="12">96.00</text>
<rect x="4807" y="80.05" width="109" height="259.95" fill="#4C78A8"/>
<text x="4861.5" y="362" text-anchor="middle" font-family="Arial" font-size="12">2024-04\n0</text>
<text x="4861.5" y="72.05" text-anchor="middle" font-family="Arial" font-size="12">550.00</text>
<rect x="4934" y="333.38" width="109" height="6.62" fill="#4C78A8"/>
<text x="4988.5" y="362" text-anchor="middle" font-family="Arial" font-size="12">2024-05\n1</text>
<text x="4988.5" y="325.38" text-anchor="middle" font-family="Arial" font-size="12">14.00</text>
<rect x="5061" y="55.00" width="109" height="285.00" fill="#4C78A8"/>
<text x="5115.5" y="362" text-anchor="middle" font-family="Arial" font-size="12">2024-05\n0</text>
<text x="5115.5" y="48.00" text-anchor="middle" font-family="Arial" font-size="12">603.00</text>
<rect x="5188" y="340.00" width="109" height="0.00" fill="#4C78A8"/>
<text x="5242.5" y="362" text-anchor="middle" font-family="Arial" font-size="12">2025-02\n1</text>
<text x="5242.5" y="332.00" text-anchor="middle" font-family="Arial" font-size="12">0.00</text>
<rect x="5315" y="101.32" width="109" height="238.68" fill="#4C78A8"/>
<text x="5369.5" y="362" text-anchor="middle" font-family="Arial" font-size="12">2025-02\n0</text>
<text x="5369.5" y="93.32" text-anchor="middle" font-family="Arial" font-size="12">505.00</text>
<rect x="5442" y="340.00" width="109" height="0.00" fill="#4C78A8"/>
<text x="5496.5" y="362" text-anchor="middle" font-family="Arial" font-size="12">2025-03\n1</text>
<text x="5496.5" y="332.00" text-anchor="middle" font-family="Arial" font-size="12">0.00</text>
<rect x="5569" y="75.32" width="109" height="264.68" fill="#4C78A8"/>
<text x="5623.5" y="362" text-anchor="middle" font-family="Arial" font-size="12">2025-03\n0</text>
<text x="5623.5" y="67.32" text-anchor="middle" font-family="Arial" font-size="12">560.00</text>
<rect x="5696" y="340.00" width="109" height="0.00" fill="#4C78A8"/>
<text x="5750.5" y="362" text-anchor="middle" font-family="Arial" font-size="12">2025-04\n1</text>
<text x="5750.5" y="332.00" text-anchor="middle" font-family="Arial" font-size="12">0.00</text>
<rect x="5823" y="62.09" width="109" height="277.91" fill="#4C78A8"/>
<text x="5877.5" y="362" text-anchor="middle" font-family="Arial" font-size="12">2025-04\n0</text>
<text x="5877.5" y="54.09" text-anchor="middle" font-family="Arial" font-size="12">588.00</text>
<rect x="5950" y="340.00" width="109" height="0.00" fill="#4C78A8"/>
<text x="6004.5" y="362" text-anchor="middle" font-family="Arial" font-size="12">2025-05\n1</text>
<text x="6004.5" y="332.00" text-anchor="middle" font-family="Arial" font-size="12">0.00</text>
<rect x="6077" y="78.16" width="109" height="261.84" fill="#4C78A8"/>
<text x="6131.5" y="362" text-anchor="middle" font-family="Arial" font-size="12">2025-05\n0</text>
<text x="6131.5" y="70.16" text-anchor="middle" font-family="Arial" font-size="12">554.00</text>
</svg>