<svg xmlns="http://www.w3.org/2000/svg" width="1900" height="420" viewBox="0 0 1900 420">
<rect width="100%" height="100%" fill="white"/>
<text x="950.0" y="30" text-anchor="middle" font-family="Arial" font-size="20" font-weight="700">2km Pearson Corr with Fire Label</text>
<line x1="90" y1="55" x2="90" y2="340" stroke="#222"/>
<line x1="90" y1="340" x2="1870" y2="340" stroke="#222"/>
<rect x="108" y="408.08" width="70" height="-68.08" fill="#4C78A8"/>
<text x="143.0" y="362" text-anchor="middle" font-family="Arial" font-size="12">effective_humidity</text>
<text x="143.0" y="400.08" text-anchor="middle" font-family="Arial" font-size="12">-0.24</text>
<rect x="196" y="276.82" width="70" height="63.18" fill="#4C78A8"/>
<text x="231.0" y="362" text-anchor="middle" font-family="Arial" font-size="12">dwi</text>
<text x="231.0" y="268.82" text-anchor="middle" font-family="Arial" font-size="12">0.22</text>
<rect x="284" y="276.82" width="70" height="63.18" fill="#4C78A8"/>
<text x="319.0" y="362" text-anchor="middle" font-family="Arial" font-size="12">dwi_n</text>
<text x="319.0" y="268.82" text-anchor="middle" font-family="Arial" font-size="12">0.22</text>
<rect x="372" y="399.10" width="70" height="-59.10" fill="#4C78A8"/>
<text x="407.0" y="362" text-anchor="middle" font-family="Arial" font-size="12">hm_mean</text>
<text x="407.0" y="391.10" text-anchor="middle" font-family="Arial" font-size="12">-0.21</text>
<rect x="460" y="281.98" width="70" height="58.02" fill="#4C78A8"/>
<text x="495.0" y="362" text-anchor="middle" font-family="Arial" font-size="12">pffdri</text>
<text x="495.0" y="273.98" text-anchor="middle" font-family="Arial" font-size="12">0.20</text>
<rect x="548" y="282.15" width="70" height="57.85" fill="#4C78A8"/>
<text x="583.0" y="362" text-anchor="middle" font-family="Arial" font-size="12">ffdri</text>
<text x="583.0" y="274.15" text-anchor="middle" font-family="Arial" font-size="12">0.20</text>
<rect x="636" y="396.95" width="70" height="-56.95" fill="#4C78A8"/>
<text x="671.0" y="362" text-anchor="middle" font-family="Arial" font-size="12">hm_min</text>
<text x="671.0" y="388.95" text-anchor="middle" font-family="Arial" font-size="12">-0.20</text>
<rect x="724" y="300.80" width="70" height="39.20" fill="#4C78A8"/>
<text x="759.0" y="362" text-anchor="middle" font-family="Arial" font-size="12">Da</text>
<text x="759.0" y="292.80" text-anchor="middle" font-family="Arial" font-size="12">0.14</text>
<rect x="812" y="305.69" width="70" height="34.31" fill="#4C78A8"/>
<text x="847.0" y="362" text-anchor="middle" font-family="Arial" font-size="12">rne</text>
<text x="847.0" y="297.69" text-anchor="middle" font-family="Arial" font-size="12">0.12</text>
<rect x="900" y="310.34" width="70" height="29.66" fill="#4C78A8"/>
<text x="935.0" y="362" text-anchor="middle" font-family="Arial" font-size="12">ywi</text>
<text x="935.0" y="302.34" text-anchor="middle" font-family="Arial" font-size="12">0.10</text>
<rect x="988" y="311.64" width="70" height="28.36" fill="#4C78A8"/>
<text x="1023.0" y="362" text-anchor="middle" font-family="Arial" font-size="12">Ws</text>
<text x="1023.0" y="303.64" text-anchor="middle" font-family="Arial" font-size="12">0.10</text>
<rect x="1076" y="367.57" width="70" height="-27.57" fill="#4C78A8"/>
<text x="1111.0" y="362" text-anchor="middle" font-family="Arial" font-size="12">rn_day_max</text>
<text x="1111.0" y="359.57" text-anchor="middle" font-family="Arial" font-size="12">-0.10</text>
<rect x="1164" y="314.98" width="70" height="25.02" fill="#4C78A8"/>
<text x="1199.0" y="362" text-anchor="middle" font-family="Arial" font-size="12">ta_max</text>
<text x="1199.0" y="306.98" text-anchor="middle" font-family="Arial" font-size="12">0.09</text>
<rect x="1252" y="363.96" width="70" height="-23.96" fill="#4C78A8"/>
<text x="1287.0" y="362" text-anchor="middle" font-family="Arial" font-size="12">rn_day_mean</text>
<text x="1287.0" y="355.96" text-anchor="middle" font-family="Arial" font-size="12">-0.08</text>
<rect x="1340" y="324.04" width="70" height="15.96" fill="#4C78A8"/>
<text x="1375.0" y="362" text-anchor="middle" font-family="Arial" font-size="12">day_weight</text>
<text x="1375.0" y="316.04" text-anchor="middle" font-family="Arial" font-size="12">0.06</text>
<rect x="1428" y="325.91" width="70" height="14.09" fill="#4C78A8"/>
<text x="1463.0" y="362" text-anchor="middle" font-family="Arial" font-size="12">wind_ws_max</text>
<text x="1463.0" y="317.91" text-anchor="middle" font-family="Arial" font-size="12">0.05</text>
<rect x="1516" y="352.73" width="70" height="-12.73" fill="#4C78A8"/>
<text x="1551.0" y="362" text-anchor="middle" font-family="Arial" font-size="12">elevation</text>
<text x="1551.0" y="344.73" text-anchor="middle" font-family="Arial" font-size="12">-0.04</text>
<rect x="1604" y="327.85" width="70" height="12.15" fill="#4C78A8"/>
<text x="1639.0" y="362" text-anchor="middle" font-family="Arial" font-size="12">ta_mean</text>
<text x="1639.0" y="319.85" text-anchor="middle" font-family="Arial" font-size="12">0.04</text>
<rect x="1692" y="351.53" width="70" height="-11.53" fill="#4C78A8"/>
<text x="1727.0" y="362" text-anchor="middle" font-family="Arial" font-size="12">tmi_base_n</text>
<text x="1727.0" y="343.53" text-anchor="middle" font-family="Arial" font-size="12">-0.04</text>
<rect x="1780" y="330.81" width="70" height="9.19" fill="#4C78A8"/>
<text x="1815.0" y="362" text-anchor="middle" font-family="Arial" font-size="12">wind_ws_mean</text>
<text x="1815.0" y="322.81" text-anchor="middle" font-family="Arial" font-size="12">0.03</text>
</svg>