<svg xmlns="http://www.w3.org/2000/svg" width="1900" height="420" viewBox="0 0 1900 420">
<rect width="100%" height="100%" fill="white"/>
<text x="950.0" y="30" text-anchor="middle" font-family="Arial" font-size="20" font-weight="700">500m Pearson Corr with Fire Label</text>
<line x1="90" y1="55" x2="90" y2="340" stroke="#222"/>
<line x1="90" y1="340" x2="1870" y2="340" stroke="#222"/>
<rect x="108" y="405.53" width="70" height="-65.53" fill="#4C78A8"/>
<text x="143.0" y="362" text-anchor="middle" font-family="Arial" font-size="12">effective_humidity</text>
<text x="143.0" y="397.53" text-anchor="middle" font-family="Arial" font-size="12">-0.23</text>
<rect x="196" y="398.78" width="70" height="-58.78" fill="#4C78A8"/>
<text x="231.0" y="362" text-anchor="middle" font-family="Arial" font-size="12">hm_mean</text>
<text x="231.0" y="390.78" text-anchor="middle" font-family="Arial" font-size="12">-0.21</text>
<rect x="284" y="281.45" width="70" height="58.55" fill="#4C78A8"/>
<text x="319.0" y="362" text-anchor="middle" font-family="Arial" font-size="12">dwi</text>
<text x="319.0" y="273.45" text-anchor="middle" font-family="Arial" font-size="12">0.21</text>
<rect x="372" y="281.45" width="70" height="58.55" fill="#4C78A8"/>
<text x="407.0" y="362" text-anchor="middle" font-family="Arial" font-size="12">dwi_n</text>
<text x="407.0" y="273.45" text-anchor="middle" font-family="Arial" font-size="12">0.21</text>
<rect x="460" y="397.00" width="70" height="-57.00" fill="#4C78A8"/>
<text x="495.0" y="362" text-anchor="middle" font-family="Arial" font-size="12">hm_min</text>
<text x="495.0" y="389.00" text-anchor="middle" font-family="Arial" font-size="12">-0.20</text>
<rect x="548" y="283.95" width="70" height="56.05" fill="#4C78A8"/>
<text x="583.0" y="362" text-anchor="middle" font-family="Arial" font-size="12">pffdri</text>
<text x="583.0" y="275.95" text-anchor="middle" font-family="Arial" font-size="12">0.20</text>
<rect x="636" y="285.23" width="70" height="54.77" fill="#4C78A8"/>
<text x="671.0" y="362" text-anchor="middle" font-family="Arial" font-size="12">ffdri</text>
<text x="671.0" y="277.23" text-anchor="middle" font-family="Arial" font-size="12">0.19</text>
<rect x="724" y="304.83" width="70" height="35.17" fill="#4C78A8"/>
<text x="759.0" y="362" text-anchor="middle" font-family="Arial" font-size="12">rne</text>
<text x="759.0" y="296.83" text-anchor="middle" font-family="Arial" font-size="12">0.12</text>
<rect x="812" y="306.62" width="70" height="33.38" fill="#4C78A8"/>
<text x="847.0" y="362" text-anchor="middle" font-family="Arial" font-size="12">Da</text>
<text x="847.0" y="298.62" text-anchor="middle" font-family="Arial" font-size="12">0.12</text>
<rect x="900" y="367.18" width="70" height="-27.18" fill="#4C78A8"/>
<text x="935.0" y="362" text-anchor="middle" font-family="Arial" font-size="12">rn_day_max</text>
<text x="935.0" y="359.18" text-anchor="middle" font-family="Arial" font-size="12">-0.10</text>
<rect x="988" y="314.10" width="70" height="25.90" fill="#4C78A8"/>
<text x="1023.0" y="362" text-anchor="middle" font-family="Arial" font-size="12">Ws</text>
<text x="1023.0" y="306.10" text-anchor="middle" font-family="Arial" font-size="12">0.09</text>
<rect x="1076" y="363.87" width="70" height="-23.87" fill="#4C78A8"/>
<text x="1111.0" y="362" text-anchor="middle" font-family="Arial" font-size="12">rn_day_mean</text>
<text x="1111.0" y="355.87" text-anchor="middle" font-family="Arial" font-size="12">-0.08</text>
<rect x="1164" y="318.50" width="70" height="21.50" fill="#4C78A8"/>
<text x="1199.0" y="362" text-anchor="middle" font-family="Arial" font-size="12">day_weight</text>
<text x="1199.0" y="310.50" text-anchor="middle" font-family="Arial" font-size="12">0.08</text>
<rect x="1252" y="320.83" width="70" height="19.17" fill="#4C78A8"/>
<text x="1287.0" y="362" text-anchor="middle" font-family="Arial" font-size="12">ywi</text>
<text x="1287.0" y="312.83" text-anchor="middle" font-family="Arial" font-size="12">0.07</text>
<rect x="1340" y="323.71" width="70" height="16.29" fill="#4C78A8"/>
<text x="1375.0" y="362" text-anchor="middle" font-family="Arial" font-size="12">ta_max</text>
<text x="1375.0" y="315.71" text-anchor="middle" font-family="Arial" font-size="12">0.06</text>
<rect x="1428" y="325.81" width="70" height="14.19" fill="#4C78A8"/>
<text x="1463.0" y="362" text-anchor="middle" font-family="Arial" font-size="12">wind_ws_max</text>
<text x="1463.0" y="317.81" text-anchor="middle" font-family="Arial" font-size="12">0.05</text>
<rect x="1516" y="353.22" width="70" height="-13.22" fill="#4C78A8"/>
<text x="1551.0" y="362" text-anchor="middle" font-family="Arial" font-size="12">tmi_base_n</text>
<text x="1551.0" y="345.22" text-anchor="middle" font-family="Arial" font-size="12">-0.05</text>
<rect x="1604" y="352.99" width="70" height="-12.99" fill="#4C78A8"/>
<text x="1639.0" y="362" text-anchor="middle" font-family="Arial" font-size="12">elevation</text>
<text x="1639.0" y="344.99" text-anchor="middle" font-family="Arial" font-size="12">-0.05</text>
<rect x="1692" y="351.17" width="70" height="-11.17" fill="#4C78A8"/>
<text x="1727.0" y="362" text-anchor="middle" font-family="Arial" font-size="12">tree_height_code</text>
<text x="1727.0" y="343.17" text-anchor="middle" font-family="Arial" font-size="12">-0.04</text>
<rect x="1780" y="348.80" width="70" height="-8.80" fill="#4C78A8"/>
<text x="1815.0" y="362" text-anchor="middle" font-family="Arial" font-size="12">age_class_code</text>
<text x="1815.0" y="340.80" text-anchor="middle" font-family="Arial" font-size="12">-0.03</text>
</svg>