<svg xmlns="http://www.w3.org/2000/svg" width="1900" height="420" viewBox="0 0 1900 420">
<rect width="100%" height="100%" fill="white"/>
<text x="950.0" y="30" text-anchor="middle" font-family="Arial" font-size="20" font-weight="700">1km Pearson Corr with Fire Label</text>
<line x1="90" y1="55" x2="90" y2="340" stroke="#222"/>
<line x1="90" y1="340" x2="1870" y2="340" stroke="#222"/>
<rect x="108" y="407.23" width="70" height="-67.23" fill="#4C78A8"/>
<text x="143.0" y="362" text-anchor="middle" font-family="Arial" font-size="12">effective_humidity</text>
<text x="143.0" y="399.23" text-anchor="middle" font-family="Arial" font-size="12">-0.24</text>
<rect x="196" y="276.35" width="70" height="63.65" fill="#4C78A8"/>
<text x="231.0" y="362" text-anchor="middle" font-family="Arial" font-size="12">dwi</text>
<text x="231.0" y="268.35" text-anchor="middle" font-family="Arial" font-size="12">0.22</text>
<rect x="284" y="276.35" width="70" height="63.65" fill="#4C78A8"/>
<text x="319.0" y="362" text-anchor="middle" font-family="Arial" font-size="12">dwi_n</text>
<text x="319.0" y="268.35" text-anchor="middle" font-family="Arial" font-size="12">0.22</text>
<rect x="372" y="400.85" width="70" height="-60.85" fill="#4C78A8"/>
<text x="407.0" y="362" text-anchor="middle" font-family="Arial" font-size="12">hm_mean</text>
<text x="407.0" y="392.85" text-anchor="middle" font-family="Arial" font-size="12">-0.21</text>
<rect x="460" y="399.48" width="70" height="-59.48" fill="#4C78A8"/>
<text x="495.0" y="362" text-anchor="middle" font-family="Arial" font-size="12">hm_min</text>
<text x="495.0" y="391.48" text-anchor="middle" font-family="Arial" font-size="12">-0.21</text>
<rect x="548" y="282.83" width="70" height="57.17" fill="#4C78A8"/>
<text x="583.0" y="362" text-anchor="middle" font-family="Arial" font-size="12">pffdri</text>
<text x="583.0" y="274.83" text-anchor="middle" font-family="Arial" font-size="12">0.20</text>
<rect x="636" y="283.08" width="70" height="56.92" fill="#4C78A8"/>
<text x="671.0" y="362" text-anchor="middle" font-family="Arial" font-size="12">ffdri</text>
<text x="671.0" y="275.08" text-anchor="middle" font-family="Arial" font-size="12">0.20</text>
<rect x="724" y="302.52" width="70" height="37.48" fill="#4C78A8"/>
<text x="759.0" y="362" text-anchor="middle" font-family="Arial" font-size="12">Da</text>
<text x="759.0" y="294.52" text-anchor="middle" font-family="Arial" font-size="12">0.13</text>
<rect x="812" y="304.59" width="70" height="35.41" fill="#4C78A8"/>
<text x="847.0" y="362" text-anchor="middle" font-family="Arial" font-size="12">rne</text>
<text x="847.0" y="296.59" text-anchor="middle" font-family="Arial" font-size="12">0.12</text>
<rect x="900" y="309.20" width="70" height="30.80" fill="#4C78A8"/>
<text x="935.0" y="362" text-anchor="middle" font-family="Arial" font-size="12">ywi</text>
<text x="935.0" y="301.20" text-anchor="middle" font-family="Arial" font-size="12">0.11</text>
<rect x="988" y="310.35" width="70" height="29.65" fill="#4C78A8"/>
<text x="1023.0" y="362" text-anchor="middle" font-family="Arial" font-size="12">Ws</text>
<text x="1023.0" y="302.35" text-anchor="middle" font-family="Arial" font-size="12">0.10</text>
<rect x="1076" y="367.71" width="70" height="-27.71" fill="#4C78A8"/>
<text x="1111.0" y="362" text-anchor="middle" font-family="Arial" font-size="12">rn_day_max</text>
<text x="1111.0" y="359.71" text-anchor="middle" font-family="Arial" font-size="12">-0.10</text>
<rect x="1164" y="363.92" width="70" height="-23.92" fill="#4C78A8"/>
<text x="1199.0" y="362" text-anchor="middle" font-family="Arial" font-size="12">rn_day_mean</text>
<text x="1199.0" y="355.92" text-anchor="middle" font-family="Arial" font-size="12">-0.08</text>
<rect x="1252" y="316.97" width="70" height="23.03" fill="#4C78A8"/>
<text x="1287.0" y="362" text-anchor="middle" font-family="Arial" font-size="12">ta_max</text>
<text x="1287.0" y="308.97" text-anchor="middle" font-family="Arial" font-size="12">0.08</text>
<rect x="1340" y="321.53" width="70" height="18.47" fill="#4C78A8"/>
<text x="1375.0" y="362" text-anchor="middle" font-family="Arial" font-size="12">wind_ws_max</text>
<text x="1375.0" y="313.53" text-anchor="middle" font-family="Arial" font-size="12">0.06</text>
<rect x="1428" y="323.18" width="70" height="16.82" fill="#4C78A8"/>
<text x="1463.0" y="362" text-anchor="middle" font-family="Arial" font-size="12">day_weight</text>
<text x="1463.0" y="315.18" text-anchor="middle" font-family="Arial" font-size="12">0.06</text>
<rect x="1516" y="356.73" width="70" height="-16.73" fill="#4C78A8"/>
<text x="1551.0" y="362" text-anchor="middle" font-family="Arial" font-size="12">elevation</text>
<text x="1551.0" y="348.73" text-anchor="middle" font-family="Arial" font-size="12">-0.06</text>
<rect x="1604" y="354.80" width="70" height="-14.80" fill="#4C78A8"/>
<text x="1639.0" y="362" text-anchor="middle" font-family="Arial" font-size="12">tmi_base_n</text>
<text x="1639.0" y="346.80" text-anchor="middle" font-family="Arial" font-size="12">-0.05</text>
<rect x="1692" y="327.16" width="70" height="12.84" fill="#4C78A8"/>
<text x="1727.0" y="362" text-anchor="middle" font-family="Arial" font-size="12">wind_ws_mean</text>
<text x="1727.0" y="319.16" text-anchor="middle" font-family="Arial" font-size="12">0.05</text>
<rect x="1780" y="351.37" width="70" height="-11.37" fill="#4C78A8"/>
<text x="1815.0" y="362" text-anchor="middle" font-family="Arial" font-size="12">nearest_river_dist</text>
<text x="1815.0" y="343.37" text-anchor="middle" font-family="Arial" font-size="12">-0.04</text>
</svg>