<svg xmlns="http://www.w3.org/2000/svg" width="860" height="420" viewBox="0 0 860 420">
<rect width="100%" height="100%" fill="white"/>
<text x="430.0" y="30" text-anchor="middle" font-family="Arial" font-size="20" font-weight="700">500m Positive Mean Scores</text>
<line x1="90" y1="55" x2="90" y2="340" stroke="#222"/>
<line x1="90" y1="340" x2="830" y2="340" stroke="#222"/>
<rect x="108" y="55.00" width="62" height="285.00" fill="#4C78A8"/>
<text x="139.0" y="362" text-anchor="middle" font-family="Arial" font-size="12">ffdri</text>
<text x="139.0" y="48.00" text-anchor="middle" font-family="Arial" font-size="12">44.98</text>
<rect x="188" y="57.89" width="62" height="282.11" fill="#4C78A8"/>
<text x="219.0" y="362" text-anchor="middle" font-family="Arial" font-size="12">pffdri</text>
<text x="219.0" y="49.89" text-anchor="middle" font-family="Arial" font-size="12">44.52</text>
<rect x="268" y="307.33" width="62" height="32.67" fill="#4C78A8"/>
<text x="299.0" y="362" text-anchor="middle" font-family="Arial" font-size="12">dwi</text>
<text x="299.0" y="299.33" text-anchor="middle" font-family="Arial" font-size="12">5.16</text>
<rect x="348" y="311.06" width="62" height="28.94" fill="#4C78A8"/>
<text x="379.0" y="362" text-anchor="middle" font-family="Arial" font-size="12">fmi</text>
<text x="379.0" y="303.06" text-anchor="middle" font-family="Arial" font-size="12">4.57</text>
<rect x="428" y="336.73" width="62" height="3.27" fill="#4C78A8"/>
<text x="459.0" y="362" text-anchor="middle" font-family="Arial" font-size="12">dwi_n</text>
<text x="459.0" y="328.73" text-anchor="middle" font-family="Arial" font-size="12">0.52</text>
<rect x="508" y="336.90" width="62" height="3.10" fill="#4C78A8"/>
<text x="539.0" y="362" text-anchor="middle" font-family="Arial" font-size="12">pei</text>
<text x="539.0" y="328.90" text-anchor="middle" font-family="Arial" font-size="12">0.49</text>
<rect x="588" y="337.11" width="62" height="2.89" fill="#4C78A8"/>
<text x="619.0" y="362" text-anchor="middle" font-family="Arial" font-size="12">fmi_n</text>
<text x="619.0" y="329.11" text-anchor="middle" font-family="Arial" font-size="12">0.46</text>
<rect x="668" y="337.62" width="62" height="2.38" fill="#4C78A8"/>
<text x="699.0" y="362" text-anchor="middle" font-family="Arial" font-size="12">tmi_p</text>
<text x="699.0" y="329.62" text-anchor="middle" font-family="Arial" font-size="12">0.38</text>
<rect x="748" y="339.98" width="62" height="0.02" fill="#4C78A8"/>
<text x="779.0" y="362" text-anchor="middle" font-family="Arial" font-size="12">ywi</text>
<text x="779.0" y="331.98" text-anchor="middle" font-family="Arial" font-size="12">0.00</text>
</svg>