<svg xmlns="http://www.w3.org/2000/svg" width="860" height="420" viewBox="0 0 860 420">
<rect width="100%" height="100%" fill="white"/>
<text x="430.0" y="30" text-anchor="middle" font-family="Arial" font-size="20" font-weight="700">1km Positive Capture in Top 10% Risk</text>
<line x1="90" y1="55" x2="90" y2="340" stroke="#222"/>
<line x1="90" y1="340" x2="830" y2="340" stroke="#222"/>
<rect x="108" y="55.00" width="12" height="285.00" fill="#4C78A8"/>
<text x="114.0" y="362" text-anchor="middle" font-family="Arial" font-size="12">pffdri</text>
<text x="114.0" y="48.00" text-anchor="middle" font-family="Arial" font-size="12">20.77</text>
<rect x="138" y="58.52" width="12" height="281.48" fill="#4C78A8"/>
<text x="144.0" y="362" text-anchor="middle" font-family="Arial" font-size="12">Da</text>
<text x="144.0" y="50.52" text-anchor="middle" font-family="Arial" font-size="12">20.51</text>
<rect x="168" y="60.69" width="12" height="279.31" fill="#4C78A8"/>
<text x="174.0" y="362" text-anchor="middle" font-family="Arial" font-size="12">ffdri</text>
<text x="174.0" y="52.69" text-anchor="middle" font-family="Arial" font-size="12">20.36</text>
<rect x="198" y="68.27" width="12" height="271.73" fill="#4C78A8"/>
<text x="204.0" y="362" text-anchor="middle" font-family="Arial" font-size="12">dwi</text>
<text x="204.0" y="60.27" text-anchor="middle" font-family="Arial" font-size="12">19.80</text>
<rect x="228" y="68.27" width="12" height="271.73" fill="#4C78A8"/>
<text x="234.0" y="362" text-anchor="middle" font-family="Arial" font-size="12">dwi_n</text>
<text x="234.0" y="60.27" text-anchor="middle" font-family="Arial" font-size="12">19.80</text>
<rect x="258" y="151.17" width="12" height="188.83" fill="#4C78A8"/>
<text x="264.0" y="362" text-anchor="middle" font-family="Arial" font-size="12">ta_mean</text>
<text x="264.0" y="143.17" text-anchor="middle" font-family="Arial" font-size="12">13.76</text>
<rect x="288" y="158.49" width="12" height="181.51" fill="#4C78A8"/>
<text x="294.0" y="362" text-anchor="middle" font-family="Arial" font-size="12">ta_max</text>
<text x="294.0" y="150.49" text-anchor="middle" font-family="Arial" font-size="12">13.23</text>
<rect x="318" y="159.30" width="12" height="180.70" fill="#4C78A8"/>
<text x="324.0" y="362" text-anchor="middle" font-family="Arial" font-size="12">wind_ws_mean</text>
<text x="324.0" y="151.30" text-anchor="middle" font-family="Arial" font-size="12">13.17</text>
<rect x="348" y="183.95" width="12" height="156.05" fill="#4C78A8"/>
<text x="354.0" y="362" text-anchor="middle" font-family="Arial" font-size="12">pole_count</text>
<text x="354.0" y="175.95" text-anchor="middle" font-family="Arial" font-size="12">11.37</text>
<rect x="378" y="183.95" width="12" height="156.05" fill="#4C78A8"/>
<text x="384.0" y="362" text-anchor="middle" font-family="Arial" font-size="12">pole_n</text>
<text x="384.0" y="175.95" text-anchor="middle" font-family="Arial" font-size="12">11.37</text>
<rect x="408" y="189.91" width="12" height="150.09" fill="#4C78A8"/>
<text x="414.0" y="362" text-anchor="middle" font-family="Arial" font-size="12">road_prox</text>
<text x="414.0" y="181.91" text-anchor="middle" font-family="Arial" font-size="12">10.94</text>
<rect x="438" y="191.54" width="12" height="148.46" fill="#4C78A8"/>
<text x="444.0" y="362" text-anchor="middle" font-family="Arial" font-size="12">wind_ws_max</text>
<text x="444.0" y="183.54" text-anchor="middle" font-family="Arial" font-size="12">10.82</text>
<rect x="468" y="191.81" width="12" height="148.19" fill="#4C78A8"/>
<text x="474.0" y="362" text-anchor="middle" font-family="Arial" font-size="12">Dr</text>
<text x="474.0" y="183.81" text-anchor="middle" font-family="Arial" font-size="12">10.80</text>
<rect x="498" y="192.89" width="12" height="147.11" fill="#4C78A8"/>
<text x="504.0" y="362" text-anchor="middle" font-family="Arial" font-size="12">aspect_sin</text>
<text x="504.0" y="184.89" text-anchor="middle" font-family="Arial" font-size="12">10.72</text>
<rect x="528" y="195.06" width="12" height="144.94" fill="#4C78A8"/>
<text x="534.0" y="362" text-anchor="middle" font-family="Arial" font-size="12">pei</text>
<text x="534.0" y="187.06" text-anchor="middle" font-family="Arial" font-size="12">10.56</text>
<rect x="558" y="197.77" width="12" height="142.23" fill="#4C78A8"/>
<text x="564.0" y="362" text-anchor="middle" font-family="Arial" font-size="12">wind_wd_cos_mean</text>
<text x="564.0" y="189.77" text-anchor="middle" font-family="Arial" font-size="12">10.37</text>
<rect x="588" y="211.31" width="12" height="128.69" fill="#4C78A8"/>
<text x="594.0" y="362" text-anchor="middle" font-family="Arial" font-size="12">age_class_code</text>
<text x="594.0" y="203.31" text-anchor="middle" font-family="Arial" font-size="12">9.38</text>
<rect x="618" y="211.59" width="12" height="128.41" fill="#4C78A8"/>
<text x="624.0" y="362" text-anchor="middle" font-family="Arial" font-size="12">aspect_deg</text>
<text x="624.0" y="203.59" text-anchor="middle" font-family="Arial" font-size="12">9.36</text>
<rect x="648" y="213.75" width="12" height="126.25" fill="#4C78A8"/>
<text x="654.0" y="362" text-anchor="middle" font-family="Arial" font-size="12">wind_wd_sin_mean</text>
<text x="654.0" y="205.75" text-anchor="middle" font-family="Arial" font-size="12">9.20</text>
<rect x="678" y="217.28" width="12" height="122.72" fill="#4C78A8"/>
<text x="684.0" y="362" text-anchor="middle" font-family="Arial" font-size="12">nearest_road_dist</text>
<text x="684.0" y="209.28" text-anchor="middle" font-family="Arial" font-size="12">8.94</text>
<rect x="708" y="222.42" width="12" height="117.58" fill="#4C78A8"/>
<text x="714.0" y="362" text-anchor="middle" font-family="Arial" font-size="12">slope</text>
<text x="714.0" y="214.42" text-anchor="middle" font-family="Arial" font-size="12">8.57</text>
<rect x="738" y="243.01" width="12" height="96.99" fill="#4C78A8"/>
<text x="744.0" y="362" text-anchor="middle" font-family="Arial" font-size="12">nearest_river_dist</text>
<text x="744.0" y="235.01" text-anchor="middle" font-family="Arial" font-size="12">7.07</text>
<rect x="768" y="243.01" width="12" height="96.99" fill="#4C78A8"/>
<text x="774.0" y="362" text-anchor="middle" font-family="Arial" font-size="12">river_far</text>
<text x="774.0" y="235.01" text-anchor="middle" font-family="Arial" font-size="12">7.07</text>
<rect x="798" y="246.26" width="12" height="93.74" fill="#4C78A8"/>
<text x="804.0" y="362" text-anchor="middle" font-family="Arial" font-size="12">tmi_p</text>
<text x="804.0" y="238.26" text-anchor="middle" font-family="Arial" font-size="12">6.83</text>
<rect x="828" y="253.04" width="12" height="86.96" fill="#4C78A8"/>
<text x="834.0" y="362" text-anchor="middle" font-family="Arial" font-size="12">elevation</text>
<text x="834.0" y="245.04" text-anchor="middle" font-family="Arial" font-size="12">6.34</text>
<rect x="858" y="259.08" width="12" height="80.92" fill="#4C78A8"/>
<text x="864.0" y="362" text-anchor="middle" font-family="Arial" font-size="12">tree_height_code</text>
<text x="864.0" y="251.08" text-anchor="middle" font-family="Arial" font-size="12">5.90</text>
<rect x="888" y="269.02" width="12" height="70.98" fill="#4C78A8"/>
<text x="894.0" y="362" text-anchor="middle" font-family="Arial" font-size="12">tmi_base_n</text>
<text x="894.0" y="261.02" text-anchor="middle" font-family="Arial" font-size="12">5.17</text>
<rect x="918" y="304.78" width="12" height="35.22" fill="#4C78A8"/>
<text x="924.0" y="362" text-anchor="middle" font-family="Arial" font-size="12">Ws</text>
<text x="924.0" y="296.78" text-anchor="middle" font-family="Arial" font-size="12">2.57</text>
<rect x="948" y="305.87" width="12" height="34.13" fill="#4C78A8"/>
<text x="954.0" y="362" text-anchor="middle" font-family="Arial" font-size="12">ywi</text>
<text x="954.0" y="297.87" text-anchor="middle" font-family="Arial" font-size="12">2.49</text>
<rect x="978" y="332.36" width="12" height="7.64" fill="#4C78A8"/>
<text x="984.0" y="362" text-anchor="middle" font-family="Arial" font-size="12">forest_type_code</text>
<text x="984.0" y="324.36" text-anchor="middle" font-family="Arial" font-size="12">0.56</text>
<rect x="1008" y="340.00" width="12" height="0.00" fill="#4C78A8"/>
<text x="1014.0" y="362" text-anchor="middle" font-family="Arial" font-size="12">rn_day_mean</text>
<text x="1014.0" y="332.00" text-anchor="middle" font-family="Arial" font-size="12">0.00</text>
<rect x="1038" y="340.00" width="12" height="0.00" fill="#4C78A8"/>
<text x="1044.0" y="362" text-anchor="middle" font-family="Arial" font-size="12">hm_min</text>
<text x="1044.0" y="332.00" text-anchor="middle" font-family="Arial" font-size="12">0.00</text>
<rect x="1068" y="340.00" width="12" height="0.00" fill="#4C78A8"/>
<text x="1074.0" y="362" text-anchor="middle" font-family="Arial" font-size="12">hm_mean</text>
<text x="1074.0" y="332.00" text-anchor="middle" font-family="Arial" font-size="12">0.00</text>
<rect x="1098" y="340.00" width="12" height="0.00" fill="#4C78A8"/>
<text x="1104.0" y="362" text-anchor="middle" font-family="Arial" font-size="12">day_weight</text>
<text x="1104.0" y="332.00" text-anchor="middle" font-family="Arial" font-size="12">0.00</text>
<rect x="1128" y="340.00" width="12" height="0.00" fill="#4C78A8"/>
<text x="1134.0" y="362" text-anchor="middle" font-family="Arial" font-size="12">aspect_cos</text>
<text x="1134.0" y="332.00" text-anchor="middle" font-family="Arial" font-size="12">0.00</text>
<rect x="1158" y="340.00" width="12" height="0.00" fill="#4C78A8"/>
<text x="1164.0" y="362" text-anchor="middle" font-family="Arial" font-size="12">fmi_n</text>
<text x="1164.0" y="332.00" text-anchor="middle" font-family="Arial" font-size="12">0.00</text>
<rect x="1188" y="340.00" width="12" height="0.00" fill="#4C78A8"/>
<text x="1194.0" y="362" text-anchor="middle" font-family="Arial" font-size="12">is_forest</text>
<text x="1194.0" y="332.00" text-anchor="middle" font-family="Arial" font-size="12">0.00</text>
<rect x="1218" y="340.00" width="12" height="0.00" fill="#4C78A8"/>
<text x="1224.0" y="362" text-anchor="middle" font-family="Arial" font-size="12">rn_day_max</text>
<text x="1224.0" y="332.00" text-anchor="middle" font-family="Arial" font-size="12">0.00</text>
<rect x="1248" y="340.00" width="12" height="0.00" fill="#4C78A8"/>
<text x="1254.0" y="362" text-anchor="middle" font-family="Arial" font-size="12">rne</text>
<text x="1254.0" y="332.00" text-anchor="middle" font-family="Arial" font-size="12">0.00</text>
<rect x="1278" y="340.00" width="12" height="0.00" fill="#4C78A8"/>
<text x="1284.0" y="362" text-anchor="middle" font-family="Arial" font-size="12">effective_humidity</text>
<text x="1284.0" y="332.00" text-anchor="middle" font-family="Arial" font-size="12">0.00</text>
<rect x="1308" y="340.00" width="12" height="0.00" fill="#4C78A8"/>
<text x="1314.0" y="362" text-anchor="middle" font-family="Arial" font-size="12">fmi</text>
<text x="1314.0" y="332.00" text-anchor="middle" font-family="Arial" font-size="12">0.00</text>
<rect x="1338" y="340.00" width="12" height="0.00" fill="#4C78A8"/>
<text x="1344.0" y="362" text-anchor="middle" font-family="Arial" font-size="12">Rm</text>
<text x="1344.0" y="332.00" text-anchor="middle" font-family="Arial" font-size="12">0.00</text>
</svg>