<svg xmlns="http://www.w3.org/2000/svg" width="860" height="420" viewBox="0 0 860 420">
<rect width="100%" height="100%" fill="white"/>
<text x="430.0" y="30" text-anchor="middle" font-family="Arial" font-size="20" font-weight="700">500m Positive Capture in Top 10% Risk</text>
<line x1="90" y1="55" x2="90" y2="340" stroke="#222"/>
<line x1="90" y1="340" x2="830" y2="340" stroke="#222"/>
<rect x="108" y="55.00" width="12" height="285.00" fill="#4C78A8"/>
<text x="114.0" y="362" text-anchor="middle" font-family="Arial" font-size="12">pffdri</text>
<text x="114.0" y="48.00" text-anchor="middle" font-family="Arial" font-size="12">20.81</text>
<rect x="138" y="58.04" width="12" height="281.96" fill="#4C78A8"/>
<text x="144.0" y="362" text-anchor="middle" font-family="Arial" font-size="12">ffdri</text>
<text x="144.0" y="50.04" text-anchor="middle" font-family="Arial" font-size="12">20.59</text>
<rect x="168" y="84.41" width="12" height="255.59" fill="#4C78A8"/>
<text x="174.0" y="362" text-anchor="middle" font-family="Arial" font-size="12">Da</text>
<text x="174.0" y="76.41" text-anchor="middle" font-family="Arial" font-size="12">18.67</text>
<rect x="198" y="95.57" width="12" height="244.43" fill="#4C78A8"/>
<text x="204.0" y="362" text-anchor="middle" font-family="Arial" font-size="12">dwi</text>
<text x="204.0" y="87.57" text-anchor="middle" font-family="Arial" font-size="12">17.85</text>
<rect x="228" y="95.57" width="12" height="244.43" fill="#4C78A8"/>
<text x="234.0" y="362" text-anchor="middle" font-family="Arial" font-size="12">dwi_n</text>
<text x="234.0" y="87.57" text-anchor="middle" font-family="Arial" font-size="12">17.85</text>
<rect x="258" y="155.41" width="12" height="184.59" fill="#4C78A8"/>
<text x="264.0" y="362" text-anchor="middle" font-family="Arial" font-size="12">wind_ws_mean</text>
<text x="264.0" y="147.41" text-anchor="middle" font-family="Arial" font-size="12">13.48</text>
<rect x="288" y="184.82" width="12" height="155.18" fill="#4C78A8"/>
<text x="294.0" y="362" text-anchor="middle" font-family="Arial" font-size="12">pei</text>
<text x="294.0" y="176.82" text-anchor="middle" font-family="Arial" font-size="12">11.33</text>
<rect x="318" y="184.82" width="12" height="155.18" fill="#4C78A8"/>
<text x="324.0" y="362" text-anchor="middle" font-family="Arial" font-size="12">ta_max</text>
<text x="324.0" y="176.82" text-anchor="middle" font-family="Arial" font-size="12">11.33</text>
<rect x="348" y="185.84" width="12" height="154.16" fill="#4C78A8"/>
<text x="354.0" y="362" text-anchor="middle" font-family="Arial" font-size="12">ta_mean</text>
<text x="354.0" y="177.84" text-anchor="middle" font-family="Arial" font-size="12">11.26</text>
<rect x="378" y="193.95" width="12" height="146.05" fill="#4C78A8"/>
<text x="384.0" y="362" text-anchor="middle" font-family="Arial" font-size="12">wind_ws_max</text>
<text x="384.0" y="185.95" text-anchor="middle" font-family="Arial" font-size="12">10.67</text>
<rect x="408" y="196.99" width="12" height="143.01" fill="#4C78A8"/>
<text x="414.0" y="362" text-anchor="middle" font-family="Arial" font-size="12">pole_count</text>
<text x="414.0" y="188.99" text-anchor="middle" font-family="Arial" font-size="12">10.44</text>
<rect x="438" y="196.99" width="12" height="143.01" fill="#4C78A8"/>
<text x="444.0" y="362" text-anchor="middle" font-family="Arial" font-size="12">pole_n</text>
<text x="444.0" y="188.99" text-anchor="middle" font-family="Arial" font-size="12">10.44</text>
<rect x="468" y="201.05" width="12" height="138.95" fill="#4C78A8"/>
<text x="474.0" y="362" text-anchor="middle" font-family="Arial" font-size="12">aspect_sin</text>
<text x="474.0" y="193.05" text-anchor="middle" font-family="Arial" font-size="12">10.15</text>
<rect x="498" y="201.05" width="12" height="138.95" fill="#4C78A8"/>
<text x="504.0" y="362" text-anchor="middle" font-family="Arial" font-size="12">road_prox</text>
<text x="504.0" y="193.05" text-anchor="middle" font-family="Arial" font-size="12">10.15</text>
<rect x="528" y="207.14" width="12" height="132.86" fill="#4C78A8"/>
<text x="534.0" y="362" text-anchor="middle" font-family="Arial" font-size="12">slope</text>
<text x="534.0" y="199.14" text-anchor="middle" font-family="Arial" font-size="12">9.70</text>
<rect x="558" y="208.15" width="12" height="131.85" fill="#4C78A8"/>
<text x="564.0" y="362" text-anchor="middle" font-family="Arial" font-size="12">Dr</text>
<text x="564.0" y="200.15" text-anchor="middle" font-family="Arial" font-size="12">9.63</text>
<rect x="588" y="209.16" width="12" height="130.84" fill="#4C78A8"/>
<text x="594.0" y="362" text-anchor="middle" font-family="Arial" font-size="12">nearest_road_dist</text>
<text x="594.0" y="201.16" text-anchor="middle" font-family="Arial" font-size="12">9.56</text>
<rect x="618" y="214.23" width="12" height="125.77" fill="#4C78A8"/>
<text x="624.0" y="362" text-anchor="middle" font-family="Arial" font-size="12">wind_wd_sin_mean</text>
<text x="624.0" y="206.23" text-anchor="middle" font-family="Arial" font-size="12">9.19</text>
<rect x="648" y="217.28" width="12" height="122.72" fill="#4C78A8"/>
<text x="654.0" y="362" text-anchor="middle" font-family="Arial" font-size="12">aspect_deg</text>
<text x="654.0" y="209.28" text-anchor="middle" font-family="Arial" font-size="12">8.96</text>
<rect x="678" y="227.42" width="12" height="112.58" fill="#4C78A8"/>
<text x="684.0" y="362" text-anchor="middle" font-family="Arial" font-size="12">wind_wd_cos_mean</text>
<text x="684.0" y="219.42" text-anchor="middle" font-family="Arial" font-size="12">8.22</text>
<rect x="708" y="232.49" width="12" height="107.51" fill="#4C78A8"/>
<text x="714.0" y="362" text-anchor="middle" font-family="Arial" font-size="12">tmi_p</text>
<text x="714.0" y="224.49" text-anchor="middle" font-family="Arial" font-size="12">7.85</text>
<rect x="738" y="236.55" width="12" height="103.45" fill="#4C78A8"/>
<text x="744.0" y="362" text-anchor="middle" font-family="Arial" font-size="12">nearest_river_dist</text>
<text x="744.0" y="228.55" text-anchor="middle" font-family="Arial" font-size="12">7.56</text>
<rect x="768" y="236.55" width="12" height="103.45" fill="#4C78A8"/>
<text x="774.0" y="362" text-anchor="middle" font-family="Arial" font-size="12">river_far</text>
<text x="774.0" y="228.55" text-anchor="middle" font-family="Arial" font-size="12">7.56</text>
<rect x="798" y="236.56" width="12" height="103.44" fill="#4C78A8"/>
<text x="804.0" y="362" text-anchor="middle" font-family="Arial" font-size="12">age_class_code</text>
<text x="804.0" y="228.56" text-anchor="middle" font-family="Arial" font-size="12">7.55</text>
<rect x="828" y="250.75" width="12" height="89.25" fill="#4C78A8"/>
<text x="834.0" y="362" text-anchor="middle" font-family="Arial" font-size="12">elevation</text>
<text x="834.0" y="242.75" text-anchor="middle" font-family="Arial" font-size="12">6.52</text>
<rect x="858" y="259.88" width="12" height="80.12" fill="#4C78A8"/>
<text x="864.0" y="362" text-anchor="middle" font-family="Arial" font-size="12">tmi_base_n</text>
<text x="864.0" y="251.88" text-anchor="middle" font-family="Arial" font-size="12">5.85</text>
<rect x="888" y="263.78" width="12" height="76.22" fill="#4C78A8"/>
<text x="894.0" y="362" text-anchor="middle" font-family="Arial" font-size="12">tree_height_code</text>
<text x="894.0" y="255.78" text-anchor="middle" font-family="Arial" font-size="12">5.57</text>
<rect x="918" y="311.60" width="12" height="28.40" fill="#4C78A8"/>
<text x="924.0" y="362" text-anchor="middle" font-family="Arial" font-size="12">Ws</text>
<text x="924.0" y="303.60" text-anchor="middle" font-family="Arial" font-size="12">2.07</text>
<rect x="948" y="315.66" width="12" height="24.34" fill="#4C78A8"/>
<text x="954.0" y="362" text-anchor="middle" font-family="Arial" font-size="12">ywi</text>
<text x="954.0" y="307.66" text-anchor="middle" font-family="Arial" font-size="12">1.78</text>
<rect x="978" y="326.93" width="12" height="13.07" fill="#4C78A8"/>
<text x="984.0" y="362" text-anchor="middle" font-family="Arial" font-size="12">forest_type_code</text>
<text x="984.0" y="318.93" text-anchor="middle" font-family="Arial" font-size="12">0.95</text>
<rect x="1008" y="340.00" width="12" height="0.00" fill="#4C78A8"/>
<text x="1014.0" y="362" text-anchor="middle" font-family="Arial" font-size="12">rn_day_mean</text>
<text x="1014.0" y="332.00" text-anchor="middle" font-family="Arial" font-size="12">0.00</text>
<rect x="1038" y="340.00" width="12" height="0.00" fill="#4C78A8"/>
<text x="1044.0" y="362" text-anchor="middle" font-family="Arial" font-size="12">hm_min</text>
<text x="1044.0" y="332.00" text-anchor="middle" font-family="Arial" font-size="12">0.00</text>
<rect x="1068" y="340.00" width="12" height="0.00" fill="#4C78A8"/>
<text x="1074.0" y="362" text-anchor="middle" font-family="Arial" font-size="12">hm_mean</text>
<text x="1074.0" y="332.00" text-anchor="middle" font-family="Arial" font-size="12">0.00</text>
<rect x="1098" y="340.00" width="12" height="0.00" fill="#4C78A8"/>
<text x="1104.0" y="362" text-anchor="middle" font-family="Arial" font-size="12">day_weight</text>
<text x="1104.0" y="332.00" text-anchor="middle" font-family="Arial" font-size="12">0.00</text>
<rect x="1128" y="340.00" width="12" height="0.00" fill="#4C78A8"/>
<text x="1134.0" y="362" text-anchor="middle" font-family="Arial" font-size="12">aspect_cos</text>
<text x="1134.0" y="332.00" text-anchor="middle" font-family="Arial" font-size="12">0.00</text>
<rect x="1158" y="340.00" width="12" height="0.00" fill="#4C78A8"/>
<text x="1164.0" y="362" text-anchor="middle" font-family="Arial" font-size="12">fmi_n</text>
<text x="1164.0" y="332.00" text-anchor="middle" font-family="Arial" font-size="12">0.00</text>
<rect x="1188" y="340.00" width="12" height="0.00" fill="#4C78A8"/>
<text x="1194.0" y="362" text-anchor="middle" font-family="Arial" font-size="12">is_forest</text>
<text x="1194.0" y="332.00" text-anchor="middle" font-family="Arial" font-size="12">0.00</text>
<rect x="1218" y="340.00" width="12" height="0.00" fill="#4C78A8"/>
<text x="1224.0" y="362" text-anchor="middle" font-family="Arial" font-size="12">rn_day_max</text>
<text x="1224.0" y="332.00" text-anchor="middle" font-family="Arial" font-size="12">0.00</text>
<rect x="1248" y="340.00" width="12" height="0.00" fill="#4C78A8"/>
<text x="1254.0" y="362" text-anchor="middle" font-family="Arial" font-size="12">rne</text>
<text x="1254.0" y="332.00" text-anchor="middle" font-family="Arial" font-size="12">0.00</text>
<rect x="1278" y="340.00" width="12" height="0.00" fill="#4C78A8"/>
<text x="1284.0" y="362" text-anchor="middle" font-family="Arial" font-size="12">effective_humidity</text>
<text x="1284.0" y="332.00" text-anchor="middle" font-family="Arial" font-size="12">0.00</text>
<rect x="1308" y="340.00" width="12" height="0.00" fill="#4C78A8"/>
<text x="1314.0" y="362" text-anchor="middle" font-family="Arial" font-size="12">fmi</text>
<text x="1314.0" y="332.00" text-anchor="middle" font-family="Arial" font-size="12">0.00</text>
<rect x="1338" y="340.00" width="12" height="0.00" fill="#4C78A8"/>
<text x="1344.0" y="362" text-anchor="middle" font-family="Arial" font-size="12">Rm</text>
<text x="1344.0" y="332.00" text-anchor="middle" font-family="Arial" font-size="12">0.00</text>
</svg>