<svg xmlns="http://www.w3.org/2000/svg" width="860" height="420" viewBox="0 0 860 420">
<rect width="100%" height="100%" fill="white"/>
<text x="430.0" y="30" text-anchor="middle" font-family="Arial" font-size="20" font-weight="700">2km Positive Capture in Top 10% Risk</text>
<line x1="90" y1="55" x2="90" y2="340" stroke="#222"/>
<line x1="90" y1="340" x2="830" y2="340" stroke="#222"/>
<rect x="108" y="55.00" width="12" height="285.00" fill="#4C78A8"/>
<text x="114.0" y="362" text-anchor="middle" font-family="Arial" font-size="12">dwi_n</text>
<text x="114.0" y="48.00" text-anchor="middle" font-family="Arial" font-size="12">22.44</text>
<rect x="138" y="55.00" width="12" height="285.00" fill="#4C78A8"/>
<text x="144.0" y="362" text-anchor="middle" font-family="Arial" font-size="12">dwi</text>
<text x="144.0" y="48.00" text-anchor="middle" font-family="Arial" font-size="12">22.44</text>
<rect x="168" y="61.83" width="12" height="278.17" fill="#4C78A8"/>
<text x="174.0" y="362" text-anchor="middle" font-family="Arial" font-size="12">Da</text>
<text x="174.0" y="53.83" text-anchor="middle" font-family="Arial" font-size="12">21.91</text>
<rect x="198" y="64.49" width="12" height="275.51" fill="#4C78A8"/>
<text x="204.0" y="362" text-anchor="middle" font-family="Arial" font-size="12">pffdri</text>
<text x="204.0" y="56.49" text-anchor="middle" font-family="Arial" font-size="12">21.70</text>
<rect x="228" y="67.36" width="12" height="272.64" fill="#4C78A8"/>
<text x="234.0" y="362" text-anchor="middle" font-family="Arial" font-size="12">ffdri</text>
<text x="234.0" y="59.36" text-anchor="middle" font-family="Arial" font-size="12">21.47</text>
<rect x="258" y="150.24" width="12" height="189.76" fill="#4C78A8"/>
<text x="264.0" y="362" text-anchor="middle" font-family="Arial" font-size="12">ta_mean</text>
<text x="264.0" y="142.24" text-anchor="middle" font-family="Arial" font-size="12">14.94</text>
<rect x="288" y="152.25" width="12" height="187.75" fill="#4C78A8"/>
<text x="294.0" y="362" text-anchor="middle" font-family="Arial" font-size="12">ta_max</text>
<text x="294.0" y="144.25" text-anchor="middle" font-family="Arial" font-size="12">14.79</text>
<rect x="318" y="177.19" width="12" height="162.81" fill="#4C78A8"/>
<text x="324.0" y="362" text-anchor="middle" font-family="Arial" font-size="12">wind_ws_mean</text>
<text x="324.0" y="169.19" text-anchor="middle" font-family="Arial" font-size="12">12.82</text>
<rect x="348" y="197.25" width="12" height="142.75" fill="#4C78A8"/>
<text x="354.0" y="362" text-anchor="middle" font-family="Arial" font-size="12">wind_ws_max</text>
<text x="354.0" y="189.25" text-anchor="middle" font-family="Arial" font-size="12">11.24</text>
<rect x="378" y="201.56" width="12" height="138.44" fill="#4C78A8"/>
<text x="384.0" y="362" text-anchor="middle" font-family="Arial" font-size="12">pole_count</text>
<text x="384.0" y="193.56" text-anchor="middle" font-family="Arial" font-size="12">10.90</text>
<rect x="408" y="201.56" width="12" height="138.44" fill="#4C78A8"/>
<text x="414.0" y="362" text-anchor="middle" font-family="Arial" font-size="12">pole_n</text>
<text x="414.0" y="193.56" text-anchor="middle" font-family="Arial" font-size="12">10.90</text>
<rect x="438" y="203.21" width="12" height="136.79" fill="#4C78A8"/>
<text x="444.0" y="362" text-anchor="middle" font-family="Arial" font-size="12">pei</text>
<text x="444.0" y="195.21" text-anchor="middle" font-family="Arial" font-size="12">10.77</text>
<rect x="468" y="204.08" width="12" height="135.92" fill="#4C78A8"/>
<text x="474.0" y="362" text-anchor="middle" font-family="Arial" font-size="12">wind_wd_sin_mean</text>
<text x="474.0" y="196.08" text-anchor="middle" font-family="Arial" font-size="12">10.70</text>
<rect x="498" y="207.38" width="12" height="132.62" fill="#4C78A8"/>
<text x="504.0" y="362" text-anchor="middle" font-family="Arial" font-size="12">aspect_sin</text>
<text x="504.0" y="199.38" text-anchor="middle" font-family="Arial" font-size="12">10.44</text>
<rect x="528" y="208.32" width="12" height="131.68" fill="#4C78A8"/>
<text x="534.0" y="362" text-anchor="middle" font-family="Arial" font-size="12">road_prox</text>
<text x="534.0" y="200.32" text-anchor="middle" font-family="Arial" font-size="12">10.37</text>
<rect x="558" y="216.44" width="12" height="123.56" fill="#4C78A8"/>
<text x="564.0" y="362" text-anchor="middle" font-family="Arial" font-size="12">aspect_deg</text>
<text x="564.0" y="208.44" text-anchor="middle" font-family="Arial" font-size="12">9.73</text>
<rect x="588" y="218.21" width="12" height="121.79" fill="#4C78A8"/>
<text x="594.0" y="362" text-anchor="middle" font-family="Arial" font-size="12">age_class_code</text>
<text x="594.0" y="210.21" text-anchor="middle" font-family="Arial" font-size="12">9.59</text>
<rect x="618" y="222.12" width="12" height="117.88" fill="#4C78A8"/>
<text x="624.0" y="362" text-anchor="middle" font-family="Arial" font-size="12">nearest_road_dist</text>
<text x="624.0" y="214.12" text-anchor="middle" font-family="Arial" font-size="12">9.28</text>
<rect x="648" y="222.27" width="12" height="117.73" fill="#4C78A8"/>
<text x="654.0" y="362" text-anchor="middle" font-family="Arial" font-size="12">forest_type_code</text>
<text x="654.0" y="214.27" text-anchor="middle" font-family="Arial" font-size="12">9.27</text>
<rect x="678" y="222.77" width="12" height="117.23" fill="#4C78A8"/>
<text x="684.0" y="362" text-anchor="middle" font-family="Arial" font-size="12">Dr</text>
<text x="684.0" y="214.77" text-anchor="middle" font-family="Arial" font-size="12">9.23</text>
<rect x="708" y="223.34" width="12" height="116.66" fill="#4C78A8"/>
<text x="714.0" y="362" text-anchor="middle" font-family="Arial" font-size="12">slope</text>
<text x="714.0" y="215.34" text-anchor="middle" font-family="Arial" font-size="12">9.19</text>
<rect x="738" y="224.99" width="12" height="115.01" fill="#4C78A8"/>
<text x="744.0" y="362" text-anchor="middle" font-family="Arial" font-size="12">wind_wd_cos_mean</text>
<text x="744.0" y="216.99" text-anchor="middle" font-family="Arial" font-size="12">9.06</text>
<rect x="768" y="231.25" width="12" height="108.75" fill="#4C78A8"/>
<text x="774.0" y="362" text-anchor="middle" font-family="Arial" font-size="12">river_far</text>
<text x="774.0" y="223.25" text-anchor="middle" font-family="Arial" font-size="12">8.56</text>
<rect x="798" y="231.25" width="12" height="108.75" fill="#4C78A8"/>
<text x="804.0" y="362" text-anchor="middle" font-family="Arial" font-size="12">nearest_river_dist</text>
<text x="804.0" y="223.25" text-anchor="middle" font-family="Arial" font-size="12">8.56</text>
<rect x="828" y="240.74" width="12" height="99.26" fill="#4C78A8"/>
<text x="834.0" y="362" text-anchor="middle" font-family="Arial" font-size="12">tmi_p</text>
<text x="834.0" y="232.74" text-anchor="middle" font-family="Arial" font-size="12">7.82</text>
<rect x="858" y="245.62" width="12" height="94.38" fill="#4C78A8"/>
<text x="864.0" y="362" text-anchor="middle" font-family="Arial" font-size="12">elevation</text>
<text x="864.0" y="237.62" text-anchor="middle" font-family="Arial" font-size="12">7.43</text>
<rect x="888" y="257.31" width="12" height="82.69" fill="#4C78A8"/>
<text x="894.0" y="362" text-anchor="middle" font-family="Arial" font-size="12">tree_height_code</text>
<text x="894.0" y="249.31" text-anchor="middle" font-family="Arial" font-size="12">6.51</text>
<rect x="918" y="261.80" width="12" height="78.20" fill="#4C78A8"/>
<text x="924.0" y="362" text-anchor="middle" font-family="Arial" font-size="12">tmi_base_n</text>
<text x="924.0" y="253.80" text-anchor="middle" font-family="Arial" font-size="12">6.16</text>
<rect x="948" y="309.88" width="12" height="30.12" fill="#4C78A8"/>
<text x="954.0" y="362" text-anchor="middle" font-family="Arial" font-size="12">Ws</text>
<text x="954.0" y="301.88" text-anchor="middle" font-family="Arial" font-size="12">2.37</text>
<rect x="978" y="313.48" width="12" height="26.52" fill="#4C78A8"/>
<text x="984.0" y="362" text-anchor="middle" font-family="Arial" font-size="12">ywi</text>
<text x="984.0" y="305.48" text-anchor="middle" font-family="Arial" font-size="12">2.09</text>
<rect x="1008" y="338.06" width="12" height="1.94" fill="#4C78A8"/>
<text x="1014.0" y="362" text-anchor="middle" font-family="Arial" font-size="12">hm_mean</text>
<text x="1014.0" y="330.06" text-anchor="middle" font-family="Arial" font-size="12">0.15</text>
<rect x="1038" y="338.06" width="12" height="1.94" fill="#4C78A8"/>
<text x="1044.0" y="362" text-anchor="middle" font-family="Arial" font-size="12">hm_min</text>
<text x="1044.0" y="330.06" text-anchor="middle" font-family="Arial" font-size="12">0.15</text>
<rect x="1068" y="340.00" width="12" height="0.00" fill="#4C78A8"/>
<text x="1074.0" y="362" text-anchor="middle" font-family="Arial" font-size="12">rn_day_mean</text>
<text x="1074.0" y="332.00" text-anchor="middle" font-family="Arial" font-size="12">0.00</text>
<rect x="1098" y="340.00" width="12" height="0.00" fill="#4C78A8"/>
<text x="1104.0" y="362" text-anchor="middle" font-family="Arial" font-size="12">day_weight</text>
<text x="1104.0" y="332.00" text-anchor="middle" font-family="Arial" font-size="12">0.00</text>
<rect x="1128" y="340.00" width="12" height="0.00" fill="#4C78A8"/>
<text x="1134.0" y="362" text-anchor="middle" font-family="Arial" font-size="12">aspect_cos</text>
<text x="1134.0" y="332.00" text-anchor="middle" font-family="Arial" font-size="12">0.00</text>
<rect x="1158" y="340.00" width="12" height="0.00" fill="#4C78A8"/>
<text x="1164.0" y="362" text-anchor="middle" font-family="Arial" font-size="12">fmi_n</text>
<text x="1164.0" y="332.00" text-anchor="middle" font-family="Arial" font-size="12">0.00</text>
<rect x="1188" y="340.00" width="12" height="0.00" fill="#4C78A8"/>
<text x="1194.0" y="362" text-anchor="middle" font-family="Arial" font-size="12">is_forest</text>
<text x="1194.0" y="332.00" text-anchor="middle" font-family="Arial" font-size="12">0.00</text>
<rect x="1218" y="340.00" width="12" height="0.00" fill="#4C78A8"/>
<text x="1224.0" y="362" text-anchor="middle" font-family="Arial" font-size="12">rn_day_max</text>
<text x="1224.0" y="332.00" text-anchor="middle" font-family="Arial" font-size="12">0.00</text>
<rect x="1248" y="340.00" width="12" height="0.00" fill="#4C78A8"/>
<text x="1254.0" y="362" text-anchor="middle" font-family="Arial" font-size="12">rne</text>
<text x="1254.0" y="332.00" text-anchor="middle" font-family="Arial" font-size="12">0.00</text>
<rect x="1278" y="340.00" width="12" height="0.00" fill="#4C78A8"/>
<text x="1284.0" y="362" text-anchor="middle" font-family="Arial" font-size="12">effective_humidity</text>
<text x="1284.0" y="332.00" text-anchor="middle" font-family="Arial" font-size="12">0.00</text>
<rect x="1308" y="340.00" width="12" height="0.00" fill="#4C78A8"/>
<text x="1314.0" y="362" text-anchor="middle" font-family="Arial" font-size="12">fmi</text>
<text x="1314.0" y="332.00" text-anchor="middle" font-family="Arial" font-size="12">0.00</text>
<rect x="1338" y="340.00" width="12" height="0.00" fill="#4C78A8"/>
<text x="1344.0" y="362" text-anchor="middle" font-family="Arial" font-size="12">Rm</text>
<text x="1344.0" y="332.00" text-anchor="middle" font-family="Arial" font-size="12">0.00</text>
</svg>